<svg width="21" height="21" viewBox="0 0 21 21" fill="none" xmlns="http://www.w3.org/2000/svg">
<path d="M11.7974 18.0483L8.65279 19.8588C8.20492 20.1161 7.7094 20.24 7.23294 20.24C6.24191 20.24 5.27946 19.7254 4.74582 18.8106L0.371926 11.2349C-0.418996 9.8627 0.057463 8.10933 1.42014 7.32794L3.42127 6.16537L3.66903 7.68052L2.13483 8.56673C1.44872 8.95743 1.22002 9.83411 1.61072 10.5202L5.98462 18.0959C6.37532 18.7725 7.26153 19.0107 7.9381 18.62L9.81535 17.5337C10.0631 17.6671 10.3299 17.7624 10.6158 17.8196L11.7974 18.0483Z" fill="#6AF8C8"/>
<path d="M13.3603 3.61157H13.2936C13.0649 3.5544 12.8457 3.54487 12.6266 3.56393C12.3788 3.57346 12.1501 3.61157 11.9214 3.68781L11.7499 2.63007C11.626 1.8582 10.8923 1.32457 10.1109 1.44845L5.67027 2.17266C5.29863 2.23937 4.96511 2.43948 4.74593 2.75395C4.51723 3.05888 4.43147 3.44005 4.49818 3.82121L4.75546 5.40306L5.00322 6.90867L5.89897 12.4547C5.96567 12.8263 6.16578 13.1598 6.48025 13.3885C6.78518 13.6077 7.16635 13.6935 7.54752 13.6363L8.51949 13.4743L8.37656 14.2271L8.32891 14.4844C8.30032 14.6368 8.28126 14.8084 8.28126 14.9608L7.77622 15.0466C7.61422 15.0752 7.46175 15.0847 7.30929 15.0847C6.71848 15.0847 6.1372 14.8941 5.64168 14.5416C5.02228 14.1032 4.61253 13.4362 4.48865 12.6834L3.66914 7.68054L3.42138 6.16539L3.07833 4.04991C2.96398 3.29711 3.1355 2.53477 3.58337 1.91538C4.03125 1.29598 4.68876 0.886224 5.44157 0.762344L9.88217 0.0381257C11.4354 -0.209633 12.9125 0.848107 13.1602 2.40136L13.3603 3.61157Z" fill="#6AF8C8"/>
<path d="M17.7151 4.4406L13.3603 3.61156H13.2936C13.0648 3.55438 12.8457 3.54485 12.6265 3.56391C12.3787 3.57344 12.15 3.61156 11.9213 3.68779C10.9398 3.9832 10.1584 4.81224 9.95833 5.87951L9.73916 7.03254L9.32941 9.18614L8.51943 13.4743L8.37649 14.2271L8.32884 14.4844C8.30025 14.6368 8.2812 14.8084 8.2812 14.9608C8.26214 16.0472 8.87201 17.0477 9.8154 17.5337C10.0632 17.6671 10.33 17.7624 10.6158 17.8196L11.7975 18.0483L15.0279 18.6582C15.2089 18.6867 15.3804 18.7058 15.5615 18.7058C16.9051 18.7058 18.1058 17.7433 18.3726 16.3711L19.9926 7.77582C20.288 6.23209 19.2588 4.72647 17.7151 4.4406ZM18.5823 7.509L16.9623 16.1139C16.8194 16.8857 16.0665 17.4003 15.2947 17.2478L13.3793 16.8857L11.5402 16.5427L10.8731 16.4188C10.1013 16.2663 9.58669 15.523 9.73916 14.7417V14.7226L9.8821 13.9793L10.025 13.236L10.4253 11.092L10.835 8.92885L11.3591 6.14632C11.4544 5.67939 11.7594 5.30775 12.1596 5.1267C12.3502 5.03141 12.5503 4.98376 12.7599 4.98376C12.798 4.98376 12.8266 4.98376 12.8552 4.99329C12.9124 4.99329 12.9696 5.00282 13.0267 5.01235L13.608 5.11717L17.4483 5.84139C18.2201 5.98433 18.7347 6.73713 18.5823 7.509Z" fill="#6AF8C8"/>
</svg>
