<svg width="18" height="18" viewBox="0 0 18 18" fill="none" xmlns="http://www.w3.org/2000/svg">
<path d="M9 10.3057C11.4005 10.3057 13.5375 10.764 15.0459 11.4717C16.6135 12.2072 17.25 13.0748 17.25 13.7783C17.2498 14.592 16.7953 15.4265 15.5059 16.0986C14.1913 16.7838 12.0781 17.25 9 17.25C5.92186 17.25 3.80873 16.7838 2.49414 16.0986C1.20465 15.4265 0.750164 14.592 0.75 13.7783C0.75 13.0748 1.38653 12.2072 2.9541 11.4717C4.4625 10.764 6.59955 10.3057 9 10.3057ZM9 0.75C10.6402 0.75 12.0684 2.32706 12.0684 4.00977C12.0683 5.65655 10.6741 7.125 9 7.125C7.32586 7.125 5.9317 5.65655 5.93164 4.00977C5.93164 2.32706 7.35982 0.75 9 0.75Z" stroke="#B676FE" stroke-width="1.5"/>
</svg>
