<svg width="18" height="18" viewBox="0 0 18 18" fill="none" xmlns="http://www.w3.org/2000/svg">
<path d="M9.00011 18.0002C13.9707 18.0002 18.0002 13.9707 18.0002 9.00011C18.0002 4.02949 13.9707 0 9.00011 0C4.02949 0 0 4.02949 0 9.00011C0 13.9707 4.02949 18.0002 9.00011 18.0002Z" fill="url(#paint0_linear_23_671)"/>
<path d="M9.00014 17.8684C13.898 17.8684 17.8684 13.898 17.8684 9.00014C17.8684 4.10231 13.898 0.131836 9.00014 0.131836C4.10231 0.131836 0.131836 4.10231 0.131836 9.00014C0.131836 13.898 4.10231 17.8684 9.00014 17.8684Z" fill="url(#paint1_linear_23_671)"/>
<path d="M9.00024 17.7805C13.8496 17.7805 17.7807 13.8493 17.7807 8.99999C17.7807 4.15065 13.8496 0.219482 9.00024 0.219482C4.15089 0.219482 0.219727 4.15065 0.219727 8.99999C0.219727 13.8493 4.15089 17.7805 9.00024 17.7805Z" fill="url(#paint2_linear_23_671)"/>
<path d="M8.99989 15.7324C12.718 15.7324 15.7322 12.7183 15.7322 9.00013C15.7322 5.28198 12.718 2.26782 8.99989 2.26782C5.28174 2.26782 2.26758 5.28198 2.26758 9.00013C2.26758 12.7183 5.28174 15.7324 8.99989 15.7324Z" fill="url(#paint3_linear_23_671)"/>
<path d="M9.00003 15.4976C12.5885 15.4976 15.4976 12.5885 15.4976 9.00003C15.4976 5.41151 12.5885 2.50244 9.00003 2.50244C5.41151 2.50244 2.50244 5.41151 2.50244 9.00003C2.50244 12.5885 5.41151 15.4976 9.00003 15.4976Z" fill="url(#paint4_linear_23_671)"/>
<path d="M8.99996 15.3552C12.5097 15.3552 15.3549 12.5099 15.3549 9.00021C15.3549 5.49047 12.5097 2.64526 8.99996 2.64526C5.49023 2.64526 2.64502 5.49047 2.64502 9.00021C2.64502 12.5099 5.49023 15.3552 8.99996 15.3552Z" fill="url(#paint5_linear_23_671)"/>
<path d="M8.99999 5.00488L10.2998 7.63877L13.2063 7.81977V8.06104L11.1033 10.1113L11.5996 12.7646V13.0061L8.99999 11.6392L6.40019 13.0061V12.7646L6.89673 10.1113L4.79346 8.06104V7.81977L7.69998 7.63877L8.99999 5.00488Z" fill="url(#paint6_linear_23_671)"/>
<path d="M8.99999 4.76343L10.2998 7.39731L13.2063 7.81981L11.1033 9.86982L11.5996 12.7646L8.99999 11.398L6.40019 12.7646L6.89673 9.86982L4.79346 7.81981L7.69998 7.39731L8.99999 4.76343Z" fill="url(#paint7_linear_23_671)"/>
<path opacity="0.17" d="M14.8765 2.47577C12.5708 11.6393 4.73186 12.4202 0.82482 12.2099C0.434139 11.2157 0.219727 10.133 0.219727 9.00022C0.219727 4.15044 4.15069 0.219482 9.00024 0.219482C11.2599 0.219482 13.3205 1.07307 14.8767 2.47577H14.8765Z" fill="url(#paint8_linear_23_671)"/>
<defs>
<linearGradient id="paint0_linear_23_671" x1="9.00011" y1="0.310785" x2="9.00011" y2="18.0377" gradientUnits="userSpaceOnUse">
<stop stop-color="#E3A010"/>
<stop offset="1" stop-color="#F4CD27"/>
</linearGradient>
<linearGradient id="paint1_linear_23_671" x1="9.00014" y1="0.438107" x2="9.00014" y2="17.9055" gradientUnits="userSpaceOnUse">
<stop stop-color="#F4CD27"/>
<stop offset="1" stop-color="#E3A010"/>
</linearGradient>
<linearGradient id="paint2_linear_23_671" x1="9.00024" y1="0.522593" x2="9.00024" y2="17.8171" gradientUnits="userSpaceOnUse">
<stop stop-color="#FFEB94"/>
<stop offset="1" stop-color="#FFC23F"/>
</linearGradient>
<linearGradient id="paint3_linear_23_671" x1="8.99989" y1="2.50006" x2="8.99989" y2="15.7607" gradientUnits="userSpaceOnUse">
<stop stop-color="#E3A010"/>
<stop offset="1" stop-color="#F4CD27"/>
</linearGradient>
<linearGradient id="paint4_linear_23_671" x1="9.00003" y1="2.72678" x2="9.00003" y2="15.5247" gradientUnits="userSpaceOnUse">
<stop stop-color="#C97E0E"/>
<stop offset="1" stop-color="#E3A010"/>
</linearGradient>
<linearGradient id="paint5_linear_23_671" x1="8.99997" y1="2.86464" x2="8.99997" y2="15.3816" gradientUnits="userSpaceOnUse">
<stop stop-color="#F4CD27"/>
<stop offset="1" stop-color="#E3A010"/>
</linearGradient>
<linearGradient id="paint6_linear_23_671" x1="8.99999" y1="5.14301" x2="8.99999" y2="13.0228" gradientUnits="userSpaceOnUse">
<stop stop-color="#E3A010"/>
<stop offset="1" stop-color="#C97E0E"/>
</linearGradient>
<linearGradient id="paint7_linear_23_671" x1="8.99999" y1="4.90178" x2="8.99999" y2="12.7813" gradientUnits="userSpaceOnUse">
<stop stop-color="#FFEC5E"/>
<stop offset="1" stop-color="#FFC547"/>
</linearGradient>
<linearGradient id="paint8_linear_23_671" x1="6.08243" y1="4.52487" x2="10.6047" y2="11.7314" gradientUnits="userSpaceOnUse">
<stop stop-color="white"/>
<stop offset="1" stop-color="white" stop-opacity="0"/>
</linearGradient>
</defs>
</svg>
