<svg width="22" height="24" viewBox="0 0 22 24" fill="none" xmlns="http://www.w3.org/2000/svg">
<path d="M16.9999 7.80005C16.9999 11.1138 14.3136 13.8 10.9999 13.8M16.9999 7.80005C16.9999 4.48634 14.3136 1.80005 10.9999 1.80005M16.9999 7.80005H4.9999M10.9999 13.8C7.68619 13.8 4.9999 11.1138 4.9999 7.80005M10.9999 13.8C12.3254 13.8 13.3999 11.1138 13.3999 7.80005C13.3999 4.48634 12.3254 1.80005 10.9999 1.80005M10.9999 13.8C9.67442 13.8 8.5999 11.1138 8.5999 7.80005C8.5999 4.48634 9.67442 1.80005 10.9999 1.80005M4.9999 7.80005C4.9999 4.48634 7.68619 1.80005 10.9999 1.80005M13.3999 19.8C13.3999 21.1255 12.3254 22.2 10.9999 22.2C9.67442 22.2 8.5999 21.1255 8.5999 19.8M13.3999 19.8C13.3999 18.4746 12.3254 17.4 10.9999 17.4C9.67442 17.4 8.5999 18.4746 8.5999 19.8M13.3999 19.8H20.5999M8.5999 19.8H1.3999" stroke="#B676FE" stroke-width="2" stroke-linecap="round" stroke-linejoin="round"/>
</svg>
