<svg width="25" height="24" viewBox="0 0 25 24" fill="none" xmlns="http://www.w3.org/2000/svg">
<path d="M23.3455 11.89V12.1C23.2755 12.12 23.2955 12.2 23.2255 12.24C23.0955 12.3 22.9955 12.4 22.8755 12.48C22.6555 12.64 22.4255 12.8 22.2055 12.96C21.9855 13.12 21.7455 13.26 21.5255 13.42C21.2455 13.61 20.9655 13.82 20.6855 14.01C20.4555 14.17 20.2255 14.33 19.9955 14.49C19.9455 14.52 19.9155 14.56 19.9755 14.61C20.0955 14.72 20.2055 14.84 20.3255 14.95C20.5655 15.17 20.7455 15.41 20.7955 15.75C20.8355 16.03 20.8155 16.29 20.6955 16.56C20.6055 16.74 20.4855 16.9 20.3355 17.02C20.1855 17.14 20.0155 17.24 19.8055 17.27C19.6055 17.3 19.4055 17.32 19.2155 17.27C19.1755 17.27 19.1055 17.24 19.1055 17.32C19.1055 17.53 19.0055 17.71 18.8955 17.88C18.7055 18.16 18.4355 18.35 18.1055 18.41C17.8155 18.47 17.5255 18.46 17.2555 18.31C17.1855 18.27 17.1455 18.3 17.1355 18.38C17.1155 18.51 17.0555 18.63 16.9855 18.73C16.6755 19.21 16.0255 19.48 15.4755 19.27C15.4055 19.24 15.3555 19.25 15.2855 19.31C15.0755 19.49 14.8155 19.61 14.5455 19.66C14.1655 19.74 13.7855 19.74 13.4055 19.63C13.3555 19.62 13.3155 19.61 13.2655 19.63C12.9255 19.76 12.5755 19.81 12.2055 19.81C11.8055 19.81 11.4055 19.74 11.0555 19.56C10.7555 19.41 10.4955 19.2 10.2855 18.94C10.2555 18.91 10.2455 18.86 10.1755 18.87C9.81551 18.93 9.48551 18.85 9.19551 18.64C8.96551 18.47 8.79551 18.26 8.72551 17.97C8.65551 17.69 8.65551 17.68 8.36551 17.69C8.02551 17.71 7.72551 17.6 7.47551 17.38C7.20551 17.15 7.05551 16.85 7.03551 16.5C7.03551 16.44 7.03551 16.39 6.95551 16.41C6.70551 16.47 6.47551 16.4 6.26551 16.3C5.87551 16.13 5.61551 15.82 5.52551 15.4C5.46551 15.15 5.46551 14.89 5.57551 14.63C5.63551 14.48 5.72551 14.34 5.82551 14.22C5.84551 14.19 5.89551 14.17 5.82551 14.12C5.65551 13.99 5.48551 13.84 5.31551 13.7C5.12551 13.55 4.94551 13.4 4.75551 13.24C4.56551 13.08 4.37551 12.92 4.18551 12.76C3.95551 12.57 3.71551 12.37 3.48551 12.18C3.29551 12.02 3.09551 11.87 2.91551 11.71C2.73551 11.55 2.51551 11.44 2.39551 11.22C2.39551 11.16 2.39551 11.1 2.39551 11.04C2.52551 10.85 2.65551 10.66 2.78551 10.48C2.99551 10.19 3.20551 9.90001 3.40551 9.60001C3.61551 9.30001 3.82551 8.99001 4.04551 8.69001C4.20551 8.47001 4.35551 8.24001 4.52551 8.02001C4.69551 7.80001 4.82551 7.57001 4.98551 7.34001C5.18551 7.06001 5.38551 6.79001 5.58551 6.51001C5.69551 6.36001 5.81551 6.30001 5.98551 6.36001C6.33551 6.50001 6.67551 6.63001 7.04551 6.72001C7.34551 6.79001 7.64551 6.85001 7.94551 6.76001C8.23551 6.68001 8.53551 6.59001 8.81551 6.47001C9.19551 6.31001 9.59551 6.20001 9.99551 6.09001C10.0555 6.07001 10.1155 6.06001 10.1755 6.06001C10.2755 6.06001 10.3755 6.05001 10.4655 6.01001C10.6655 6.01001 10.8655 6.01001 11.0655 6.01001C11.1455 6.03001 11.2355 6.05001 11.3155 6.06001C11.6555 6.09001 11.9655 6.21001 12.2855 6.33001C12.5255 6.43001 12.7555 6.56001 12.9755 6.70001C13.0555 6.75001 13.0955 6.76001 13.1755 6.70001C13.2355 6.66001 13.3055 6.62001 13.3755 6.59001C13.7255 6.45001 14.0755 6.32001 14.4555 6.25001C14.9555 6.16001 15.4555 6.17001 15.9455 6.28001C16.2655 6.35001 16.5855 6.46001 16.8855 6.60001C17.2855 6.78001 17.6755 6.99001 18.0755 7.15001C18.3055 7.24001 18.5355 7.29001 18.7855 7.25001C18.8855 7.23001 18.9855 7.22001 19.0855 7.21001C19.4455 7.20001 19.7755 7.07001 20.1155 6.97001C20.2955 6.92001 20.4255 6.94001 20.5355 7.09001C20.6255 7.22001 20.6955 7.36001 20.7755 7.50001C20.8955 7.71001 21.0155 7.91001 21.1355 8.12001C21.2655 8.34001 21.3855 8.55001 21.5155 8.77001C21.6355 8.97001 21.7555 9.18001 21.8655 9.38001C21.9855 9.59001 22.1155 9.81001 22.2455 10.02C22.3655 10.23 22.4855 10.43 22.6055 10.64C22.7255 10.85 22.8555 11.07 22.9755 11.28C23.0955 11.49 23.2155 11.69 23.3355 11.89H23.3455ZM8.66551 14.19C8.66551 14.19 8.74551 14.12 8.77551 14.09C9.03551 13.84 9.34551 13.72 9.69551 13.72C9.94551 13.72 10.1755 13.79 10.3755 13.92C10.5655 14.04 10.7255 14.22 10.8455 14.43C10.9155 14.57 10.9455 14.72 10.9855 14.87C11.0055 14.94 11.0155 14.96 11.0855 14.94C11.5155 14.86 11.9055 14.96 12.2255 15.27C12.4455 15.48 12.6055 15.74 12.6255 16.06C12.6255 16.18 12.6255 16.3 12.6255 16.42C12.6255 16.51 12.6355 16.58 12.7255 16.64C12.8355 16.71 12.9255 16.82 13.0155 16.92C13.1155 17.04 13.2155 17.18 13.2455 17.33C13.2855 17.56 13.2855 17.8 13.1655 18.02C13.0955 18.14 13.0355 18.27 12.9655 18.4C12.9255 18.47 12.9055 18.55 12.9555 18.6C13.1355 18.8 13.3555 18.96 13.6155 19.02C13.9855 19.11 14.3655 19.1 14.7155 18.93C14.8555 18.86 14.8655 18.84 14.7555 18.73C14.4355 18.42 14.1255 18.1 13.8155 17.79C13.7255 17.7 13.7155 17.47 13.7955 17.38C13.9055 17.26 14.0755 17.24 14.2155 17.33C14.3055 17.39 14.3755 17.48 14.4555 17.56C14.6855 17.79 14.9155 18.03 15.1555 18.25C15.3055 18.39 15.4355 18.56 15.6355 18.65C15.9055 18.78 16.2555 18.68 16.4755 18.39C16.6355 18.19 16.6155 17.79 16.4355 17.58C16.2555 17.38 16.0555 17.2 15.8655 17.01C15.5255 16.67 15.1855 16.34 14.8555 15.99C14.7255 15.85 14.5655 15.74 14.4655 15.57C14.3955 15.45 14.4355 15.3 14.5555 15.2C14.6355 15.14 14.8555 15.13 14.9255 15.19C15.1755 15.43 15.4155 15.68 15.6655 15.92C15.9255 16.18 16.1855 16.45 16.4455 16.71C16.7455 17.01 17.0455 17.3 17.3455 17.6C17.5555 17.81 17.8755 17.85 18.1255 17.74C18.5155 17.56 18.6355 17.1 18.4055 16.73C18.3455 16.63 18.2455 16.55 18.1655 16.47C17.9055 16.2 17.6455 15.95 17.3855 15.69C17.1255 15.43 16.8655 15.18 16.6055 14.92C16.3055 14.62 15.9955 14.32 15.6955 14.01C15.5955 13.91 15.4755 13.83 15.4255 13.7C15.3655 13.56 15.4055 13.43 15.5555 13.32C15.6455 13.25 15.8155 13.26 15.8955 13.34C16.0955 13.53 16.2955 13.73 16.4955 13.92C16.8655 14.29 17.2255 14.66 17.5955 15.03C18.0655 15.5 18.5555 15.95 19.0055 16.44C19.2455 16.7 19.6955 16.73 19.9555 16.53C20.2755 16.27 20.2955 15.75 19.9955 15.48C19.8355 15.33 19.6855 15.17 19.5355 15.01C19.2755 14.75 19.0155 14.49 18.7555 14.23C18.5255 14 18.3055 13.78 18.0755 13.55C17.8155 13.29 17.5455 13.02 17.2855 12.76C17.0255 12.5 16.7655 12.25 16.5155 11.99C16.2155 11.69 15.9155 11.38 15.6055 11.08C15.3155 10.78 15.0155 10.49 14.7255 10.19C14.5555 10.02 14.4955 9.98001 14.3555 10.05C14.1455 10.16 13.9655 10.31 13.8055 10.48C13.5855 10.71 13.3755 10.95 13.1755 11.19C12.9055 11.52 12.6355 11.85 12.3255 12.14C12.0255 12.41 11.7055 12.63 11.2955 12.68C10.9955 12.72 10.6955 12.68 10.4455 12.5C10.0955 12.25 10.0255 11.87 10.0755 11.47C10.1055 11.22 10.1555 10.98 10.2255 10.74C10.3255 10.42 10.4455 10.12 10.5855 9.82001C10.7255 9.51001 10.8955 9.22001 11.0655 8.92001C11.2555 8.57001 11.4855 8.25001 11.7355 7.94001C11.9655 7.66001 12.2155 7.40001 12.5055 7.18001C12.5455 7.15001 12.5555 7.12001 12.5055 7.09001C12.1155 6.89001 11.7155 6.73001 11.2755 6.66001C10.7455 6.57001 10.2355 6.64001 9.73551 6.79001C9.29551 6.92001 8.88551 7.11001 8.44551 7.25001C8.21551 7.33001 7.97551 7.40001 7.72551 7.40001C7.35551 7.40001 6.99551 7.32001 6.64551 7.22001C6.45551 7.17001 6.26551 7.10001 6.08551 7.03001C6.04551 7.01001 6.02551 7.02001 5.99551 7.05001C5.97551 7.09001 5.95551 7.12001 5.92551 7.16001C5.65551 7.53001 5.38551 7.90001 5.12551 8.28001C4.92551 8.56001 4.73551 8.85001 4.53551 9.13001C4.31551 9.44001 4.09551 9.75001 3.87551 10.06C3.67551 10.35 3.47551 10.64 3.27551 10.92C3.20551 11.02 3.21551 11.08 3.31551 11.16C3.50551 11.3 3.68551 11.45 3.86551 11.6C4.26551 11.94 4.66551 12.28 5.07551 12.61C5.45551 12.92 5.83551 13.22 6.19551 13.54C6.36551 13.69 6.36551 13.69 6.53551 13.53C6.68551 13.39 6.86551 13.3 7.05551 13.22C7.52551 13.02 8.21551 13.27 8.49551 13.69C8.59551 13.83 8.67551 13.98 8.71551 14.17L8.66551 14.19ZM15.0255 6.80001C14.8755 6.78001 14.6055 6.85001 14.3555 6.90001C13.9855 6.98001 13.6355 7.13001 13.3155 7.34001C12.9655 7.56001 12.6655 7.82001 12.3755 8.12001C11.9655 8.55001 11.6555 9.06001 11.3755 9.57001C11.1955 9.90001 11.0355 10.24 10.9055 10.6C10.8055 10.88 10.7255 11.15 10.6755 11.44C10.6655 11.52 10.6455 11.59 10.6555 11.67C10.6755 11.78 10.6755 11.93 10.7855 11.98C11.0055 12.1 11.2455 12.08 11.4755 11.97C11.8555 11.78 12.1155 11.45 12.4055 11.14C12.6055 10.92 12.7655 10.67 12.9655 10.45C13.2155 10.17 13.4655 9.90001 13.7655 9.67001C14.0055 9.49001 14.2655 9.38001 14.5655 9.34001C14.6655 9.33001 14.7555 9.35001 14.8155 9.42001C15.1755 9.77001 15.5255 10.13 15.8755 10.49C16.2755 10.89 16.6755 11.29 17.0755 11.69C17.4355 12.05 17.8055 12.41 18.1655 12.78C18.5855 13.2 19.0055 13.62 19.4255 14.05C19.4455 14.07 19.4755 14.1 19.4955 14.07C19.5255 14.02 19.5855 14.01 19.6355 13.98C19.8655 13.81 20.0955 13.65 20.3255 13.49C20.5555 13.33 20.7855 13.17 21.0155 13.01C21.2355 12.86 21.4455 12.71 21.6555 12.56C21.9355 12.35 22.2355 12.16 22.5255 11.97C22.5855 11.93 22.6055 11.89 22.5655 11.81C22.3955 11.54 22.2455 11.26 22.0855 10.99C21.9855 10.82 21.8955 10.65 21.7955 10.48C21.6355 10.21 21.4655 9.94001 21.3155 9.67001C21.1255 9.35001 20.9455 9.02001 20.7655 8.70001C20.5655 8.36001 20.3555 8.03001 20.1655 7.69001C20.1355 7.64001 20.1155 7.63001 20.0655 7.64001C19.7355 7.76001 19.3855 7.82001 19.0355 7.86001C18.7255 7.90001 18.4155 7.91001 18.1155 7.82001C17.8455 7.74001 17.5855 7.63001 17.3255 7.51001C16.9155 7.31001 16.5155 7.11001 16.0855 6.98001C15.7755 6.88001 15.4655 6.83001 15.0255 6.81001V6.80001ZM8.36551 17.05C8.54551 17.08 8.71551 16.98 8.85551 16.83C9.28551 16.4 9.71551 15.97 10.1455 15.54C10.2355 15.45 10.2955 15.35 10.3255 15.24C10.4555 14.81 10.1755 14.38 9.70551 14.35C9.46551 14.33 9.28551 14.44 9.12551 14.62C8.93551 14.82 8.72551 15.01 8.53551 15.2C8.33551 15.4 8.13551 15.59 7.94551 15.8C7.83551 15.92 7.71551 16.04 7.67551 16.22C7.58551 16.63 7.88551 17.08 8.36551 17.05ZM10.0455 18.25C10.1655 18.25 10.3355 18.19 10.4655 18.05C10.9155 17.6 11.3655 17.15 11.8155 16.7C12.0155 16.5 12.0555 16.24 11.9655 15.99C11.8155 15.55 11.3055 15.41 10.9455 15.65C10.6955 15.81 10.5155 16.06 10.3055 16.26C10.1155 16.45 9.91551 16.64 9.73551 16.83C9.59551 16.98 9.43551 17.1 9.33551 17.3C9.14551 17.71 9.47551 18.25 10.0355 18.24L10.0455 18.25ZM6.12551 15.08C6.08551 15.27 6.16551 15.44 6.29551 15.56C6.61551 15.86 6.93551 15.87 7.26551 15.58C7.47551 15.39 7.66551 15.18 7.86551 14.98C7.99551 14.85 8.06551 14.69 8.06551 14.5C8.06551 14.21 7.91551 13.96 7.59551 13.84C7.34551 13.75 7.12551 13.8 6.93551 13.98C6.73551 14.17 6.52551 14.35 6.33551 14.56C6.20551 14.7 6.06551 14.86 6.10551 15.08H6.12551ZM12.2155 19.19C12.2755 19.19 12.3455 19.17 12.4055 19.17C12.4555 19.17 12.5155 19.18 12.5355 19.14C12.5555 19.09 12.4955 19.06 12.4655 19.01C12.3655 18.86 12.2855 18.71 12.2855 18.52C12.2855 18.32 12.3755 18.16 12.4555 18C12.4955 17.91 12.5755 17.83 12.5955 17.73C12.6555 17.51 12.5455 17.27 12.3555 17.15C12.2955 17.12 12.2455 17.13 12.2055 17.18C12.1455 17.25 12.0655 17.32 11.9955 17.39C11.6155 17.78 11.2455 18.16 10.8455 18.53C10.8155 18.56 10.7955 18.58 10.8455 18.62C11.2155 19 11.6655 19.18 12.1955 19.19H12.2155Z" fill="#85C7B1"/>
<path d="M12.1952 19.93C11.7652 19.93 11.3652 19.84 11.0252 19.66C10.7152 19.5 10.4352 19.28 10.2152 19.01L10.2752 18.89L10.1852 18.97C10.1852 18.97 10.2052 18.98 10.2152 18.98C9.81516 19.04 9.45516 18.96 9.14516 18.72C8.86516 18.51 8.69516 18.27 8.62516 17.98C8.60516 17.89 8.58516 17.81 8.57516 17.8C8.55516 17.8 8.45516 17.8 8.39516 17.8C8.03516 17.81 7.69516 17.71 7.41516 17.46C7.12516 17.21 6.96516 16.9 6.93516 16.53C6.66516 16.57 6.42516 16.49 6.22516 16.4C5.79516 16.21 5.51516 15.87 5.41516 15.42C5.34516 15.11 5.36516 14.83 5.46516 14.58C5.53516 14.42 5.60516 14.29 5.70516 14.17C5.60516 14.09 5.50516 14.01 5.40516 13.92L5.04516 13.63C4.92516 13.53 4.80516 13.44 4.68516 13.34C4.59516 13.26 4.50516 13.19 4.41516 13.11C4.31516 13.03 4.21516 12.94 4.11516 12.86C3.88516 12.67 3.64516 12.47 3.41516 12.28C3.34516 12.23 3.28516 12.17 3.21516 12.12C3.08516 12.02 2.95516 11.91 2.83516 11.8C2.78516 11.75 2.72516 11.71 2.67516 11.67C2.53516 11.56 2.38516 11.45 2.29516 11.27V11.21L2.28516 10.99L2.38516 10.84C2.48516 10.69 2.59516 10.54 2.69516 10.39L2.97516 9.99001C3.08516 9.83001 3.20516 9.67002 3.31516 9.51002C3.39516 9.40002 3.46516 9.30001 3.53516 9.19001C3.67516 8.99001 3.80516 8.79002 3.95516 8.60002C4.02516 8.50002 4.09516 8.40001 4.16516 8.30001C4.25516 8.17001 4.34516 8.05001 4.43516 7.93001C4.53516 7.81001 4.61516 7.67001 4.70516 7.54001C4.76516 7.45001 4.82516 7.35002 4.89516 7.26002C4.99516 7.12002 5.09516 6.98001 5.19516 6.84001C5.29516 6.70001 5.39516 6.57001 5.49516 6.43001C5.67516 6.16001 5.89516 6.18001 6.04516 6.24001C6.40516 6.39001 6.73516 6.51001 7.08516 6.59001C7.40516 6.66001 7.66516 6.71001 7.92516 6.64001C8.26516 6.54001 8.54516 6.45001 8.77516 6.35001C9.15516 6.19001 9.54516 6.08001 9.96516 5.96001C10.1352 5.91001 10.2952 5.94001 10.4252 5.89001H10.4652H11.0652C11.1152 5.89001 11.1452 5.91001 11.1752 5.91001C11.2252 5.92001 11.2752 5.93001 11.3252 5.94001C11.6952 5.97001 12.0352 6.10001 12.3252 6.22001C12.5452 6.31001 12.7652 6.42001 13.0352 6.60001C13.0552 6.62001 13.0752 6.62001 13.0752 6.62001C13.0752 6.62001 13.0752 6.62001 13.1052 6.60001C13.1552 6.57001 13.2452 6.52001 13.3252 6.48001C13.6652 6.35001 14.0352 6.21001 14.4252 6.14001C14.9252 6.05001 15.4252 6.06001 15.9652 6.17001C16.2752 6.24001 16.6052 6.35001 16.9352 6.50001C17.0652 6.56001 17.1952 6.62001 17.3152 6.68001C17.5752 6.81001 17.8452 6.94001 18.1152 7.05001C18.3452 7.14002 18.5552 7.18001 18.7652 7.14001C18.8852 7.12001 18.9852 7.11001 19.0752 7.10001C19.3452 7.09001 19.6052 7.01001 19.8852 6.92001L20.0752 6.86001C20.2352 6.81001 20.4652 6.78001 20.6352 7.03001C20.6952 7.12002 20.7552 7.22001 20.8052 7.32001L23.0752 11.22C23.1652 11.37 23.2452 11.52 23.3352 11.66L23.4552 11.86V12.2L23.3852 12.22C23.3852 12.22 23.3352 12.32 23.2652 12.36C23.1852 12.4 23.1052 12.46 23.0252 12.52C22.9952 12.54 22.9652 12.57 22.9252 12.59L22.7052 12.75C22.5552 12.86 22.4052 12.96 22.2552 13.07C22.1452 13.15 22.0352 13.22 21.9252 13.29C21.8052 13.37 21.6952 13.45 21.5752 13.52C21.4152 13.63 21.2552 13.74 21.0952 13.85L20.7352 14.11C20.5252 14.26 20.3052 14.41 20.0852 14.56C20.1152 14.59 20.1452 14.62 20.1752 14.65C20.2452 14.72 20.3152 14.79 20.3852 14.85C20.5952 15.04 20.8352 15.31 20.8952 15.72C20.9452 16.04 20.9052 16.33 20.7852 16.6C20.6952 16.8 20.5552 16.97 20.3952 17.1C20.2052 17.25 20.0152 17.35 19.8152 17.38C19.6552 17.41 19.4352 17.43 19.2152 17.38C19.1952 17.6 19.0852 17.78 18.9852 17.93C18.7752 18.24 18.4752 18.45 18.1152 18.52C17.7752 18.59 17.4852 18.56 17.2352 18.44C17.2052 18.58 17.1452 18.69 17.0752 18.79C16.7152 19.35 15.9952 19.6 15.4152 19.38C15.3852 19.37 15.3852 19.37 15.3552 19.39C15.1352 19.58 14.8552 19.71 14.5652 19.77C14.1352 19.86 13.7352 19.85 13.3652 19.74C13.3252 19.73 13.3152 19.74 13.3052 19.74C12.9852 19.87 12.6352 19.93 12.2052 19.93H12.1652H12.1952ZM10.2152 18.74C10.3152 18.74 10.3752 18.81 10.3952 18.84C10.6152 19.1 10.8552 19.3 11.1352 19.44C11.4452 19.6 11.8052 19.68 12.1952 19.68H12.2252C12.6252 19.68 12.9452 19.62 13.2352 19.51C13.3252 19.48 13.4052 19.49 13.4552 19.51C13.7852 19.61 14.1352 19.62 14.5252 19.54C14.7852 19.49 15.0152 19.37 15.2052 19.21C15.3052 19.13 15.4052 19.11 15.5152 19.15C15.9852 19.33 16.5852 19.11 16.8752 18.66C16.9352 18.57 16.9952 18.47 17.0052 18.36C17.0152 18.25 17.0752 18.21 17.1152 18.19C17.1452 18.17 17.2152 18.15 17.3152 18.21C17.5252 18.33 17.7652 18.35 18.0752 18.29C18.3652 18.23 18.6052 18.07 18.7852 17.81C18.8852 17.66 18.9752 17.5 18.9752 17.32C18.9752 17.24 19.0152 17.19 19.0452 17.17C19.1152 17.11 19.2052 17.13 19.2452 17.14C19.4052 17.18 19.5652 17.17 19.7852 17.14C19.9452 17.11 20.0952 17.04 20.2552 16.91C20.3852 16.8 20.4952 16.66 20.5752 16.5C20.6852 16.27 20.7052 16.04 20.6652 15.76C20.6252 15.5 20.4952 15.28 20.2352 15.04C20.1652 14.97 20.0952 14.9 20.0252 14.83C19.9852 14.79 19.9352 14.74 19.8852 14.7C19.8352 14.65 19.8152 14.6 19.8152 14.54C19.8152 14.45 19.8952 14.4 19.9252 14.38C20.1552 14.22 20.3852 14.06 20.6052 13.9L20.9652 13.65C21.1252 13.54 21.2852 13.42 21.4452 13.31C21.5652 13.23 21.6752 13.15 21.7952 13.07C21.9052 13 22.0152 12.92 22.1252 12.85C22.2752 12.75 22.4252 12.64 22.5752 12.53L22.8852 12.3C22.9752 12.23 23.0652 12.17 23.1652 12.12C23.1652 12.09 23.1852 12.06 23.2152 12.03V11.92L23.1352 11.78C23.0452 11.63 22.9552 11.48 22.8752 11.34L20.6052 7.44001C20.5552 7.35001 20.4952 7.25001 20.4352 7.16001C20.3752 7.07001 20.3252 7.04001 20.1552 7.09001L19.9652 7.15001C19.6852 7.24001 19.4052 7.33001 19.0952 7.34001C19.0152 7.34001 18.9252 7.36001 18.8452 7.37001C18.5652 7.42001 18.3152 7.37001 18.0352 7.27001C17.7552 7.16001 17.4852 7.03001 17.2152 6.90001C17.0852 6.84001 16.9652 6.78001 16.8352 6.72001C16.5252 6.58001 16.2152 6.47001 15.9252 6.41001C15.4252 6.31001 14.9552 6.30001 14.4852 6.38001C14.1152 6.45001 13.7552 6.58001 13.4252 6.71001C13.3552 6.74001 13.2852 6.78001 13.2452 6.81001C13.1252 6.89001 13.0252 6.89001 12.9052 6.81001C12.6452 6.64001 12.4452 6.53001 12.2352 6.45001C11.9552 6.34001 11.6352 6.22001 11.3052 6.19001C11.2452 6.19001 11.1752 6.17001 11.1152 6.16001L11.0352 6.14001H10.4852C10.3852 6.18001 10.2852 6.19001 10.1752 6.19001C10.1252 6.19001 10.0852 6.19001 10.0252 6.21001C9.60516 6.32001 9.23516 6.43001 8.86516 6.59001C8.61516 6.69001 8.33516 6.79001 7.98516 6.89001C7.66516 6.98001 7.36516 6.92001 7.02516 6.85001C6.65516 6.77001 6.31516 6.64001 5.94516 6.49001C5.85516 6.45001 5.78516 6.46001 5.69516 6.59001C5.59516 6.73001 5.49516 6.87002 5.39516 7.01002C5.29516 7.15001 5.19516 7.28001 5.09516 7.42001C5.03516 7.51001 4.97516 7.60001 4.91516 7.69001C4.82516 7.83001 4.73516 7.97002 4.63516 8.10002C4.54516 8.22002 4.45516 8.34001 4.37516 8.46001C4.30516 8.56001 4.23516 8.67002 4.15516 8.77002C4.01516 8.96002 3.87516 9.16002 3.74516 9.35002C3.67516 9.46002 3.59516 9.57001 3.52516 9.67001C3.41516 9.83001 3.29516 9.99001 3.18516 10.15L2.90516 10.55C2.79516 10.7 2.69516 10.85 2.59516 11L2.53516 11.08V11.19C2.60516 11.31 2.71516 11.39 2.83516 11.48C2.89516 11.53 2.95516 11.57 3.01516 11.62C3.13516 11.73 3.26516 11.83 3.38516 11.93C3.45516 11.98 3.51516 12.04 3.58516 12.09C3.81516 12.28 4.05516 12.47 4.28516 12.67C4.38516 12.75 4.48516 12.84 4.58516 12.93C4.67516 13.01 4.76516 13.08 4.85516 13.16C4.97516 13.26 5.09516 13.35 5.20516 13.45L5.56516 13.75C5.67516 13.85 5.79516 13.94 5.91516 14.03C5.96516 14.07 5.99516 14.11 5.99516 14.16C5.99516 14.23 5.95516 14.28 5.93516 14.3C5.83516 14.42 5.75516 14.54 5.69516 14.69C5.60516 14.9 5.59516 15.12 5.65516 15.38C5.73516 15.75 5.96516 16.03 6.32516 16.19C6.50516 16.27 6.71516 16.35 6.93516 16.29C6.99516 16.27 7.05516 16.29 7.10516 16.31C7.17516 16.36 7.17516 16.43 7.17516 16.48C7.19516 16.8 7.32516 17.07 7.57516 17.29C7.81516 17.5 8.07516 17.6 8.37516 17.57C8.72516 17.56 8.78516 17.6 8.86516 17.93C8.92516 18.17 9.05516 18.36 9.29516 18.54C9.55516 18.73 9.84516 18.8 10.1752 18.75C10.1852 18.75 10.2052 18.75 10.2152 18.75V18.74ZM5.74516 14.14L5.85516 14.19L5.76516 14.11C5.76516 14.11 5.75516 14.13 5.75516 14.14H5.74516ZM12.2252 19.32C11.6652 19.32 11.1752 19.11 10.7852 18.71C10.7652 18.69 10.7252 18.65 10.7252 18.57C10.7252 18.5 10.7752 18.46 10.7952 18.44C11.1652 18.09 11.5252 17.73 11.8752 17.37L11.9452 17.3C11.9452 17.3 11.9952 17.25 12.0252 17.22C12.0652 17.18 12.1052 17.14 12.1452 17.1C12.2252 17 12.3452 16.98 12.4552 17.05C12.7052 17.2 12.8252 17.5 12.7452 17.77C12.7252 17.84 12.6852 17.91 12.6452 17.96C12.6252 17.99 12.6052 18.02 12.5952 18.05L12.5552 18.12C12.4952 18.25 12.4352 18.38 12.4352 18.52C12.4352 18.67 12.4952 18.79 12.5952 18.94C12.6452 18.99 12.7252 19.07 12.6752 19.18C12.6252 19.29 12.5152 19.29 12.4652 19.29L12.2352 19.31L12.2252 19.32ZM11.0052 18.58C11.3452 18.9 11.7352 19.06 12.2152 19.07L12.3552 19.05C12.2652 18.91 12.1752 18.74 12.1752 18.52C12.1752 18.32 12.2552 18.17 12.3252 18.02L12.3552 17.95C12.3552 17.95 12.3952 17.87 12.4252 17.83C12.4552 17.78 12.4852 17.74 12.4952 17.7C12.5352 17.54 12.4652 17.36 12.3052 17.26C12.2752 17.31 12.2252 17.36 12.1752 17.4C12.1552 17.42 12.1252 17.45 12.1052 17.47L12.0352 17.54C11.6952 17.88 11.3552 18.24 10.9952 18.57L11.0052 18.58ZM14.0552 19.21C13.9052 19.21 13.7452 19.19 13.5852 19.15C13.3252 19.09 13.0852 18.94 12.8552 18.69C12.7752 18.61 12.7752 18.47 12.8552 18.35C12.8952 18.28 12.9352 18.21 12.9652 18.14C12.9952 18.09 13.0152 18.03 13.0452 17.98C13.1352 17.81 13.1552 17.62 13.1152 17.37C13.0952 17.24 13.0052 17.12 12.9152 17.02C12.8352 16.93 12.7552 16.83 12.6552 16.76C12.4952 16.66 12.4852 16.52 12.4952 16.43C12.4952 16.32 12.5052 16.21 12.4952 16.08C12.4852 15.82 12.3652 15.59 12.1352 15.37C11.8552 15.1 11.5052 15 11.1052 15.08C10.9752 15.11 10.8952 15.05 10.8552 14.91L10.8352 14.83C10.8052 14.71 10.7852 14.6 10.7252 14.5C10.6252 14.31 10.4852 14.15 10.3052 14.04C10.1152 13.92 9.90516 13.86 9.69516 13.86C9.36516 13.86 9.08516 13.97 8.85516 14.19C8.82516 14.22 8.79516 14.25 8.75516 14.28L8.59516 14.43L8.54516 14.22C8.50516 14.04 8.42516 13.9 8.34516 13.78C8.07516 13.4 7.45516 13.19 7.05516 13.36C6.88516 13.43 6.71516 13.51 6.57516 13.65C6.35516 13.85 6.28516 13.86 6.07516 13.67C5.77516 13.41 5.46516 13.16 5.16516 12.91L4.95516 12.74C4.71516 12.54 4.47516 12.34 4.24516 12.14C4.07516 12 3.91516 11.86 3.74516 11.72C3.56516 11.57 3.38516 11.43 3.19516 11.28C3.04516 11.16 3.02516 11.03 3.13516 10.87C3.25516 10.7 3.38516 10.52 3.50516 10.35C3.58516 10.24 3.66516 10.12 3.73516 10.01C3.83516 9.86001 3.94516 9.72001 4.04516 9.57001C4.16516 9.41001 4.28516 9.24001 4.39516 9.08001C4.49516 8.94001 4.58516 8.81001 4.68516 8.67001C4.78516 8.52001 4.88516 8.37001 4.99516 8.23001C5.16516 7.98001 5.34516 7.74001 5.51516 7.50001L5.79516 7.11001C5.79516 7.11001 5.83516 7.04001 5.86516 7.01002C5.88516 6.97002 5.96516 6.88001 6.10516 6.93001C6.32516 7.01001 6.49516 7.07001 6.65516 7.11001C7.00516 7.20001 7.34516 7.29001 7.70516 7.29001C7.93516 7.29001 8.15516 7.22001 8.38516 7.15001C8.57516 7.09001 8.76516 7.01001 8.95516 6.94001C9.18516 6.85001 9.43516 6.76001 9.67516 6.68001C10.2452 6.51001 10.7652 6.46001 11.2752 6.54001C11.6752 6.60001 12.0652 6.74001 12.5452 6.98001C12.6252 7.02001 12.6452 7.08001 12.6552 7.12001C12.6552 7.16001 12.6552 7.22002 12.5752 7.28001C12.3352 7.46002 12.0952 7.69002 11.8252 8.02002C11.5852 8.31002 11.3652 8.63001 11.1652 8.98001L11.1452 9.02002C10.9852 9.30002 10.8252 9.58001 10.6952 9.87001C10.5852 10.11 10.4452 10.44 10.3352 10.78C10.2652 11.03 10.2152 11.26 10.1852 11.49C10.1352 11.92 10.2352 12.21 10.5052 12.4C10.7052 12.55 10.9652 12.6 11.2652 12.56C11.6752 12.51 11.9952 12.26 12.2252 12.05C12.5352 11.76 12.8052 11.43 13.0652 11.11C13.2652 10.87 13.4752 10.62 13.6952 10.39C13.8652 10.21 14.0652 10.05 14.2752 9.94001C14.4952 9.82001 14.6252 9.93002 14.7952 10.1C14.9952 10.31 15.2052 10.52 15.4152 10.72L16.5852 11.89C16.7652 12.07 16.9452 12.25 17.1252 12.43L19.6152 14.91C19.6752 14.97 19.7252 15.02 19.7852 15.08C19.8852 15.18 19.9752 15.28 20.0752 15.37C20.2452 15.53 20.3352 15.76 20.3252 16C20.3252 16.24 20.2052 16.47 20.0252 16.61C19.7152 16.86 19.1952 16.81 18.9052 16.51C18.6052 16.19 18.2852 15.88 17.9752 15.58C17.8152 15.42 17.6552 15.27 17.4952 15.11C17.3152 14.93 17.1252 14.74 16.9452 14.55C16.7652 14.37 16.5852 14.18 16.3952 14C16.1952 13.8 15.9952 13.61 15.7952 13.42C15.7552 13.38 15.6552 13.38 15.6152 13.4C15.4852 13.5 15.5052 13.58 15.5252 13.63C15.5552 13.7 15.6152 13.76 15.6852 13.82C15.7152 13.85 15.7452 13.87 15.7752 13.9C16.0352 14.16 16.2952 14.42 16.5552 14.68L16.6852 14.81C16.8752 15 17.0752 15.2 17.2652 15.39L17.6452 15.77C17.8452 15.97 18.0452 16.17 18.2452 16.37C18.2652 16.39 18.2852 16.41 18.3152 16.44C18.3852 16.5 18.4552 16.57 18.5052 16.66C18.6352 16.87 18.6752 17.12 18.6052 17.35C18.5352 17.57 18.3852 17.75 18.1752 17.85C17.8652 18 17.4952 17.93 17.2552 17.69C17.0852 17.52 16.9152 17.35 16.7452 17.18L15.9952 16.43C15.8552 16.29 15.7152 16.14 15.5752 16C15.3352 15.76 15.0852 15.51 14.8352 15.27C14.8052 15.25 14.6652 15.27 14.6352 15.29C14.5652 15.35 14.5352 15.44 14.5752 15.5C14.6352 15.6 14.7252 15.69 14.8252 15.78C14.8652 15.82 14.9052 15.86 14.9452 15.9C15.1652 16.13 15.3952 16.35 15.6152 16.58L16.1052 17.07C16.2452 17.21 16.3852 17.35 16.5252 17.5C16.7452 17.74 16.7752 18.21 16.5752 18.47C16.3152 18.8 15.9052 18.92 15.5752 18.76C15.4052 18.68 15.2852 18.56 15.1652 18.44C15.1252 18.4 15.0952 18.37 15.0552 18.33C14.8752 18.16 14.7052 17.99 14.5352 17.82L14.2952 17.57C14.2452 17.52 14.1952 17.46 14.1352 17.43C14.0552 17.37 13.9552 17.38 13.8852 17.46C13.8452 17.5 13.8452 17.65 13.8952 17.7C14.2052 18.02 14.5252 18.33 14.8352 18.64C14.8952 18.7 14.9652 18.77 14.9452 18.87C14.9252 18.97 14.8352 19.01 14.7652 19.05C14.5452 19.15 14.3052 19.21 14.0452 19.21H14.0552ZM11.3752 14.8C11.7352 14.8 12.0452 14.93 12.3152 15.19C12.5852 15.45 12.7352 15.74 12.7452 16.06C12.7452 16.19 12.7452 16.32 12.7452 16.44C12.7452 16.5 12.7452 16.52 12.7852 16.54C12.9152 16.62 13.0152 16.74 13.1052 16.85C13.2152 16.98 13.3252 17.14 13.3652 17.32C13.4252 17.63 13.3952 17.88 13.2752 18.1C13.2452 18.15 13.2252 18.2 13.1952 18.25C13.1552 18.33 13.1152 18.4 13.0752 18.48C13.0552 18.51 13.0552 18.54 13.0552 18.54C13.2352 18.73 13.4352 18.86 13.6452 18.91C14.0252 19 14.3652 18.97 14.6652 18.83C14.3452 18.52 14.0352 18.2 13.7252 17.89C13.5852 17.75 13.5752 17.45 13.7052 17.31C13.8552 17.14 14.0952 17.11 14.2852 17.24C14.3652 17.29 14.4252 17.36 14.4852 17.42L14.7252 17.66C14.8952 17.83 15.0652 18 15.2352 18.17C15.2752 18.21 15.3152 18.25 15.3552 18.28C15.4652 18.39 15.5652 18.49 15.6952 18.55C15.9152 18.66 16.2052 18.56 16.3852 18.33C16.5052 18.17 16.4852 17.84 16.3452 17.69C16.2152 17.54 16.0752 17.41 15.9352 17.27L15.4452 16.78C15.2152 16.55 14.9952 16.33 14.7652 16.1C14.7252 16.06 14.6852 16.03 14.6452 15.99C14.5452 15.89 14.4352 15.79 14.3552 15.66C14.2552 15.49 14.3052 15.26 14.4752 15.13C14.5952 15.03 14.8952 15.02 15.0052 15.13C15.2552 15.37 15.4952 15.62 15.7452 15.86C15.8852 16 16.0252 16.15 16.1652 16.29L16.9052 17.04C17.0752 17.21 17.2452 17.38 17.4152 17.55C17.5852 17.72 17.8352 17.76 18.0552 17.66C18.2052 17.59 18.3052 17.47 18.3552 17.32C18.4052 17.16 18.3752 16.98 18.2852 16.83C18.2452 16.77 18.1952 16.72 18.1352 16.66C18.1052 16.64 18.0852 16.61 18.0652 16.59C17.8652 16.39 17.6752 16.19 17.4752 15.99L17.0952 15.61C16.9052 15.42 16.7052 15.23 16.5152 15.03L16.3852 14.9C16.1252 14.64 15.8652 14.38 15.6052 14.12C15.5852 14.09 15.5552 14.07 15.5252 14.05C15.4452 13.98 15.3552 13.9 15.3052 13.77C15.2252 13.58 15.2852 13.38 15.4652 13.24C15.6052 13.13 15.8452 13.15 15.9752 13.27C16.1752 13.46 16.3852 13.66 16.5752 13.86C16.7552 14.04 16.9452 14.23 17.1252 14.41C17.3052 14.59 17.4852 14.78 17.6752 14.96C17.8352 15.12 17.9952 15.27 18.1552 15.43C18.4652 15.73 18.7852 16.05 19.0952 16.37C19.2852 16.58 19.6652 16.61 19.8752 16.45C20.0052 16.35 20.0752 16.2 20.0852 16.02C20.0852 15.85 20.0252 15.69 19.9152 15.58C19.8052 15.48 19.7052 15.38 19.6152 15.28C19.5652 15.22 19.5052 15.17 19.4552 15.11L16.9652 12.63C16.7852 12.45 16.6052 12.27 16.4252 12.09L15.2552 10.92C15.0452 10.71 14.8352 10.5 14.6352 10.29C14.4852 10.14 14.4752 10.15 14.4152 10.18C14.2252 10.28 14.0452 10.42 13.8952 10.59C13.6752 10.82 13.4652 11.06 13.2752 11.3C13.0152 11.63 12.7352 11.97 12.4052 12.26C12.1452 12.49 11.7852 12.77 11.3052 12.83C10.9352 12.88 10.6152 12.81 10.3652 12.62C10.0152 12.37 9.87516 12 9.94516 11.48C9.97516 11.23 10.0252 10.98 10.1052 10.73C10.2152 10.37 10.3552 10.04 10.4752 9.79001C10.6152 9.49001 10.7752 9.20001 10.9352 8.92001L10.9552 8.88001C11.1552 8.52001 11.3852 8.18001 11.6352 7.88001C11.8852 7.58001 12.1052 7.35001 12.3352 7.17001C11.9252 6.97001 11.5952 6.86001 11.2452 6.80001C10.7752 6.72001 10.2952 6.77001 9.75516 6.93001C9.51516 7.00001 9.28516 7.09001 9.05516 7.18001C8.86516 7.25001 8.67516 7.33001 8.47516 7.39001C8.22516 7.47001 7.98516 7.54001 7.71516 7.55001C7.32516 7.56001 6.94516 7.46001 6.59516 7.37001C6.43516 7.33001 6.26516 7.27001 6.06516 7.19001C6.04516 7.22001 6.03516 7.24002 6.01516 7.26002L5.73516 7.64001C5.56516 7.88001 5.38516 8.13001 5.21516 8.37001C5.11516 8.52001 5.01516 8.66002 4.90516 8.81002C4.80516 8.95002 4.71516 9.09001 4.61516 9.22002C4.49516 9.39002 4.38516 9.55001 4.26516 9.71001C4.16516 9.85001 4.05516 10 3.95516 10.15C3.87516 10.26 3.79516 10.37 3.72516 10.49C3.60516 10.67 3.48516 10.85 3.35516 11.02C3.34516 11.04 3.33516 11.05 3.33516 11.06C3.33516 11.06 3.34516 11.07 3.36516 11.09C3.55516 11.23 3.73516 11.38 3.91516 11.53C4.08516 11.67 4.24516 11.81 4.41516 11.95C4.65516 12.15 4.88516 12.35 5.12516 12.54L5.33516 12.71C5.63516 12.96 5.95516 13.21 6.24516 13.47C6.27516 13.5 6.30516 13.52 6.32516 13.54C6.34516 13.52 6.37516 13.49 6.40516 13.46C6.58516 13.29 6.78516 13.19 6.96516 13.12C7.46516 12.91 8.22516 13.15 8.55516 13.63C8.61516 13.72 8.68516 13.83 8.73516 13.96C9.00516 13.72 9.32516 13.6 9.70516 13.59H9.71516C9.97516 13.59 10.2352 13.67 10.4552 13.81C10.6752 13.95 10.8452 14.13 10.9652 14.37C11.0352 14.5 11.0652 14.63 11.0952 14.76V14.81C11.1952 14.8 11.2852 14.79 11.3752 14.79V14.8ZM10.0452 18.38C9.74516 18.38 9.47516 18.24 9.31516 18C9.16516 17.78 9.14516 17.5 9.24516 17.27C9.32516 17.1 9.44516 16.98 9.55516 16.87C9.59516 16.83 9.62516 16.8 9.66516 16.76C9.85516 16.56 10.0452 16.37 10.2452 16.18C10.3152 16.11 10.3752 16.04 10.4452 15.97C10.5852 15.82 10.7252 15.67 10.9052 15.55C11.1152 15.41 11.3852 15.38 11.6152 15.46C11.8452 15.54 12.0252 15.72 12.1052 15.96C12.2152 16.27 12.1452 16.58 11.9252 16.8C11.4752 17.25 11.0252 17.7 10.5752 18.15C10.4352 18.28 10.2552 18.37 10.0752 18.38H10.0552H10.0452ZM11.3452 15.67C11.2352 15.67 11.1252 15.7 11.0352 15.76C10.8852 15.86 10.7552 16 10.6252 16.14C10.5552 16.21 10.4852 16.29 10.4152 16.36C10.2252 16.55 10.0252 16.73 9.84516 16.93C9.80516 16.97 9.76516 17.01 9.72516 17.05C9.62516 17.15 9.52516 17.25 9.46516 17.38C9.39516 17.53 9.41516 17.72 9.51516 17.87C9.62516 18.04 9.82516 18.14 10.0452 18.14C10.1352 18.14 10.2752 18.09 10.3852 17.98C10.8352 17.53 11.2852 17.08 11.7252 16.63C11.8852 16.47 11.9252 16.27 11.8452 16.05C11.7852 15.88 11.6652 15.76 11.5052 15.71C11.4452 15.69 11.3852 15.68 11.3252 15.68L11.3452 15.67ZM8.44516 17.18C8.44516 17.18 8.39516 17.18 8.37516 17.18C8.36516 17.18 8.35516 17.18 8.33516 17.18C8.10516 17.18 7.89516 17.08 7.74516 16.91C7.57516 16.71 7.51516 16.45 7.57516 16.2C7.62516 15.98 7.75516 15.84 7.87516 15.72C8.04516 15.54 8.21516 15.37 8.38516 15.2L8.46516 15.12C8.53516 15.05 8.60516 14.98 8.68516 14.91C8.81516 14.79 8.94516 14.67 9.05516 14.54C9.26516 14.31 9.49516 14.22 9.74516 14.23C10.0052 14.25 10.2352 14.37 10.3752 14.58C10.5152 14.79 10.5552 15.04 10.4752 15.28C10.4352 15.41 10.3652 15.53 10.2652 15.64L8.97516 16.93C8.80516 17.1 8.63516 17.19 8.45516 17.19L8.44516 17.18ZM8.38516 16.92H8.39516C8.50516 16.95 8.63516 16.88 8.77516 16.74L10.0652 15.45C10.1452 15.37 10.1852 15.29 10.2152 15.2C10.2652 15.03 10.2452 14.85 10.1452 14.71C10.0452 14.57 9.89516 14.48 9.70516 14.47C9.52516 14.46 9.37516 14.53 9.22516 14.7C9.10516 14.84 8.96516 14.96 8.83516 15.08C8.76516 15.15 8.69516 15.21 8.62516 15.28L8.54516 15.36C8.37516 15.53 8.20516 15.7 8.03516 15.87C7.93516 15.98 7.83516 16.08 7.80516 16.24C7.76516 16.41 7.80516 16.6 7.92516 16.74C8.03516 16.87 8.17516 16.94 8.36516 16.92H8.37516H8.38516ZM6.80516 15.91C6.60516 15.91 6.41516 15.82 6.22516 15.65C6.05516 15.49 5.97516 15.29 6.00516 15.08C5.96516 14.8 6.13516 14.61 6.26516 14.47C6.44516 14.28 6.63516 14.1 6.82516 13.93L6.86516 13.89C7.09516 13.68 7.36516 13.62 7.65516 13.73C8.00516 13.86 8.21516 14.15 8.21516 14.51C8.21516 14.72 8.13516 14.91 7.97516 15.07L7.83516 15.22C7.68516 15.37 7.53516 15.53 7.36516 15.68C7.17516 15.84 6.99516 15.92 6.80516 15.92V15.91ZM7.38516 13.92C7.26516 13.92 7.14516 13.97 7.04516 14.07L7.00516 14.11C6.82516 14.28 6.62516 14.45 6.46516 14.64C6.32516 14.79 6.23516 14.9 6.26516 15.05V15.07V15.09C6.23516 15.22 6.28516 15.35 6.40516 15.46C6.67516 15.72 6.92516 15.72 7.21516 15.48C7.37516 15.34 7.52516 15.19 7.66516 15.04L7.80516 14.89C7.91516 14.78 7.97516 14.64 7.97516 14.5C7.97516 14.24 7.83516 14.05 7.58516 13.95C7.52516 13.93 7.45516 13.91 7.39516 13.91L7.38516 13.92ZM19.4852 14.2C19.4152 14.2 19.3752 14.15 19.3452 14.13C18.9252 13.7 18.5052 13.28 18.0752 12.86C17.8752 12.66 17.6752 12.46 17.4652 12.26L16.9752 11.78C16.5752 11.38 16.1752 10.98 15.7752 10.58L15.4552 10.26C15.2052 10.01 14.9652 9.76002 14.7052 9.51002C14.6652 9.48002 14.6152 9.46002 14.5552 9.47002C14.2852 9.51002 14.0452 9.61001 13.8152 9.78001C13.5452 9.98001 13.3052 10.24 13.0852 10.48L13.0352 10.54C12.9452 10.64 12.8552 10.75 12.7752 10.87C12.6852 10.99 12.5852 11.12 12.4752 11.24L12.3452 11.38C12.1052 11.64 11.8552 11.92 11.5152 12.09C11.2452 12.23 10.9652 12.23 10.7152 12.1C10.5652 12.02 10.5452 11.86 10.5252 11.74V11.69C10.5052 11.61 10.5252 11.53 10.5252 11.46V11.42C10.5752 11.14 10.6552 10.86 10.7752 10.55C10.9052 10.2 11.0652 9.84001 11.2552 9.50001C11.5052 9.04001 11.8252 8.50002 12.2752 8.02002C12.5752 7.70002 12.8952 7.44001 13.2352 7.22001C13.5752 7.00001 13.9452 6.85002 14.3152 6.76002L14.4052 6.74001C14.6452 6.69001 14.8552 6.63001 15.0252 6.65001C15.4452 6.67001 15.7652 6.72001 16.1152 6.82001C16.5052 6.94001 16.8652 7.12001 17.2152 7.29001L17.3652 7.36001C17.6452 7.50001 17.9052 7.60001 18.1352 7.67001C18.4252 7.75001 18.7352 7.73001 19.0052 7.70001C19.3052 7.66001 19.6552 7.61001 20.0052 7.49001C20.0752 7.46001 20.1752 7.46001 20.2552 7.59001C20.3652 7.78001 20.4852 7.98001 20.5952 8.17001C20.6852 8.31001 20.7652 8.45001 20.8452 8.59001C20.9452 8.76002 21.0452 8.93002 21.1352 9.10002C21.2252 9.25002 21.3052 9.41002 21.3952 9.56002C21.4852 9.71002 21.5752 9.86001 21.6652 10.01C21.7352 10.13 21.8052 10.25 21.8752 10.36C21.9352 10.46 21.9952 10.57 22.0552 10.67L22.2952 11.09C22.4152 11.29 22.5252 11.49 22.6452 11.69C22.6952 11.76 22.7452 11.91 22.5752 12.02L22.3152 12.2C22.1152 12.34 21.9052 12.47 21.7152 12.61C21.5052 12.76 21.2852 12.91 21.0752 13.06C20.9052 13.18 20.7352 13.29 20.5652 13.41L20.2152 13.65C20.0352 13.77 19.8552 13.9 19.6852 14.03C19.6652 14.05 19.6352 14.06 19.6152 14.07C19.5952 14.07 19.5852 14.09 19.5752 14.09L19.5452 14.14L19.4652 14.16C19.4652 14.16 19.4652 14.16 19.4552 14.16L19.4852 14.2ZM14.6152 9.22002C14.7252 9.22002 14.8352 9.26001 14.9052 9.33001C15.1552 9.58001 15.4052 9.83001 15.6552 10.08L15.9752 10.4C16.3752 10.8 16.7752 11.2 17.1752 11.6L17.6652 12.08C17.8652 12.28 18.0752 12.48 18.2752 12.68C18.6852 13.09 19.0952 13.5 19.4952 13.91C19.5152 13.9 19.5352 13.89 19.5452 13.88C19.5552 13.88 19.5652 13.88 19.5752 13.86C19.7552 13.73 19.9352 13.61 20.1152 13.48L20.4552 13.24C20.6252 13.12 20.7952 13 20.9652 12.89C21.1752 12.74 21.3952 12.59 21.6052 12.44C21.8052 12.29 22.0152 12.16 22.2152 12.02L22.4652 11.85C22.3352 11.64 22.2252 11.44 22.1152 11.24L21.8752 10.82C21.8152 10.72 21.7552 10.61 21.6952 10.51C21.6252 10.39 21.5552 10.27 21.4852 10.16C21.3952 10.01 21.3052 9.86001 21.2152 9.70001C21.1252 9.55001 21.0352 9.39001 20.9552 9.24001C20.8552 9.07001 20.7652 8.90001 20.6652 8.73001C20.5852 8.59001 20.4952 8.45002 20.4152 8.31002C20.3052 8.12002 20.1852 7.94001 20.0852 7.75001C19.7252 7.87001 19.3552 7.93001 19.0752 7.96001C18.7852 7.99001 18.4452 8.02001 18.1052 7.92001C17.8552 7.85001 17.5952 7.74001 17.2952 7.60001L17.1452 7.53001C16.7852 7.36002 16.4452 7.19001 16.0752 7.08001C15.7552 6.98001 15.4452 6.93001 15.0452 6.92001H15.0352C14.9252 6.90001 14.7052 6.95001 14.4952 7.00001L14.4052 7.02001C14.0552 7.10001 13.7252 7.24001 13.4052 7.44001C13.0752 7.65001 12.7852 7.90001 12.4952 8.21001C12.0652 8.67001 11.7552 9.19002 11.5052 9.64002C11.3252 9.97002 11.1752 10.31 11.0452 10.65C10.9352 10.94 10.8652 11.21 10.8152 11.47V11.52C10.7952 11.58 10.7852 11.62 10.7952 11.67V11.72C10.8152 11.81 10.8252 11.87 10.8552 11.89C11.0352 11.98 11.2252 11.98 11.4252 11.88C11.7252 11.73 11.9452 11.48 12.1852 11.22L12.3152 11.08C12.4152 10.97 12.5052 10.86 12.5952 10.73C12.6852 10.61 12.7752 10.49 12.8752 10.39L12.9252 10.33C13.1552 10.07 13.3952 9.81001 13.6952 9.59001C13.9552 9.40001 14.2352 9.28001 14.5452 9.23001C14.5652 9.23001 14.5852 9.23001 14.6152 9.23001V9.22002Z" fill="#85C7B1" stroke="#6AF8C8" stroke-width="0.1"/>
</svg>
