<svg width="24" height="24" viewBox="0 0 24 24" fill="none" xmlns="http://www.w3.org/2000/svg">
<g clip-path="url(#clip0_1_1903)">
<path d="M18.0101 11H16.8301V12.76C17.1001 12.62 17.4201 12.59 17.7401 12.69C18.0601 12.79 18.3201 13.01 18.4701 13.3C18.6201 13.6 18.6501 13.94 18.5501 14.26C18.2001 15.38 17.6001 16.35 16.8301 17.13V17.15C16.8301 18.36 15.8501 19.34 14.6501 19.34H9.35006C8.26006 19.34 7.34006 18.53 7.19006 17.48C5.91006 16.36 5.04006 14.76 4.81006 12.96V17.15C4.81006 19.66 6.85006 21.7 9.35006 21.7H14.6501C17.1501 21.7 19.1901 19.66 19.1901 17.15V10.14C19.0301 10.64 18.5601 11 18.0101 11ZM14.6501 2.31H9.35006C6.85006 2.31 4.81006 4.34 4.81006 6.85V11.04C5.04006 9.23 5.91006 7.64 7.19006 6.52C7.34006 5.47 8.26006 4.66 9.35006 4.66H14.6501C15.7201 4.66 16.6201 5.45 16.7901 6.48C16.9101 5.91 17.4101 5.49 18.0101 5.49C18.5201 5.49 18.9501 5.79 19.1401 6.22C18.8401 4.01 16.9301 2.31 14.6501 2.31Z" fill="#B676FE"/>
<path d="M11.8202 18.76C8.19023 18.76 5.24023 15.73 5.24023 12C5.24023 8.26999 8.19023 5.23999 11.8202 5.23999C14.0002 5.23999 16.0402 6.35999 17.2602 8.19999V6.73999C17.2602 6.31999 17.6002 5.98999 18.0102 5.98999C18.4202 5.98999 18.7602 6.32999 18.7602 6.73999V9.74999C18.7602 10.17 18.4202 10.5 18.0102 10.5H15.0902C14.6702 10.5 14.3402 10.16 14.3402 9.74999C14.3402 9.33999 14.6802 8.99999 15.0902 8.99999H15.9802C15.0302 7.59999 13.4702 6.74999 11.8102 6.74999C9.01024 6.74999 6.73023 9.10999 6.73023 12.01C6.73023 14.91 9.01024 17.27 11.8102 17.27C14.0102 17.27 15.9502 15.82 16.6302 13.66C16.7602 13.27 17.1802 13.05 17.5702 13.17C17.9702 13.3 18.1802 13.72 18.0602 14.11C17.1702 16.89 14.6602 18.77 11.8002 18.77L11.8202 18.76Z" fill="#6AF8C8"/>
</g>
<defs>
<clipPath id="clip0_1_1903">
<rect width="24" height="24" fill="white"/>
</clipPath>
</defs>
</svg>
