<svg width="24" height="24" viewBox="0 0 24 24" fill="none" xmlns="http://www.w3.org/2000/svg">
<g clip-path="url(#clip0_1_1902)">
<path d="M17.1598 4.82001H13.5498V6.90001L14.4298 6.07001C14.7298 5.79001 15.1498 5.64001 15.5298 5.65001C15.9498 5.66001 16.3298 5.83001 16.6198 6.13001C16.8798 6.40001 17.0298 6.78001 17.0398 7.16001H17.1598C18.3698 7.16001 19.3498 8.15001 19.3498 9.35001V10.52H21.6998V9.35001C21.6998 6.84001 19.6598 4.82001 17.1598 4.82001ZM2.2998 9.35001V10.52H4.6498V9.35001C4.6498 8.15001 5.6298 7.16001 6.8398 7.16001H6.9598C6.9698 6.79001 7.1098 6.42001 7.3898 6.13001C7.66981 5.83001 8.0498 5.66001 8.4698 5.65001C8.9098 5.65001 9.2698 5.79001 9.5698 6.07001L10.4498 6.90001V4.82001H6.8398C4.3398 4.82001 2.2998 6.84001 2.2998 9.35001ZM19.3398 13.48V14.65C19.3398 15.85 18.3598 16.83 17.1498 16.83H6.8498C5.6398 16.83 4.6598 15.85 4.6598 14.65V13.48H2.3098V14.65C2.3098 17.15 4.3498 19.18 6.8498 19.18H17.1598C19.6598 19.18 21.6998 17.15 21.6998 14.65V13.48H19.3498H19.3398Z" fill="#B676FE"/>
<path d="M6.37021 8.51001L9.69021 12M9.69021 12L6.37021 15.49M9.69021 12H1.72021" stroke="#6AF8C8" stroke-width="1.59" stroke-linecap="round" stroke-linejoin="round"/>
<path d="M17.6301 15.49L14.3101 12M14.3101 12L17.6301 8.51001M14.3101 12H22.2801" stroke="#6AF8C8" stroke-width="1.59" stroke-linecap="round" stroke-linejoin="round"/>
<path d="M15.4898 7.19001L11.9998 10.51M11.9998 10.51L8.50977 7.19001M11.9998 10.51V2.54001" stroke="#6AF8C8" stroke-width="1.59" stroke-linecap="round" stroke-linejoin="round"/>
</g>
<defs>
<clipPath id="clip0_1_1902">
<rect width="24" height="24" fill="white"/>
</clipPath>
</defs>
</svg>
