<svg width="24" height="24" viewBox="0 0 24 24" fill="none" xmlns="http://www.w3.org/2000/svg">
<g clip-path="url(#clip0_1_1900)">
<path d="M14.6501 2.31H9.35006C6.85006 2.31 4.81006 4.35 4.81006 6.85V10.32H7.16006V6.85C7.16006 5.64 8.15006 4.66 9.35006 4.66H14.6501C15.8501 4.66 16.8301 5.64 16.8301 6.85V17.16C16.8301 18.36 15.8401 19.35 14.6401 19.35H9.35006C8.15006 19.35 7.16006 18.36 7.16006 17.16V13.69H4.81006V17.16C4.81006 19.66 6.85006 21.7 9.35006 21.7H14.6501C17.1501 21.7 19.1901 19.66 19.1901 17.16V6.85C19.1901 4.35 17.1501 2.31 14.6501 2.31Z" fill="#B676FE"/>
<path d="M9.45988 7.62L13.6299 12M13.6299 12L9.45988 16.38M13.6299 12H3.62988" stroke="#6AF8C8" stroke-width="2" stroke-linecap="round" stroke-linejoin="round"/>
</g>
<defs>
<clipPath id="clip0_1_1900">
<rect width="24" height="24" fill="white"/>
</clipPath>
</defs>
</svg>
