<svg width="24" height="24" viewBox="0 0 24 24" fill="none" xmlns="http://www.w3.org/2000/svg">
<g clip-path="url(#clip0_1_1899)">
<path d="M14.6501 2.31H9.35006C6.85006 2.31 4.81006 4.35 4.81006 6.85V17.16C4.81006 19.66 6.85006 21.7 9.35006 21.7H14.6501C17.1501 21.7 19.1901 19.66 19.1901 17.16V6.85C19.1901 4.35 17.1501 2.31 14.6501 2.31ZM18.9501 12.64C18.7601 13.16 18.4001 13.55 17.9201 13.76C17.8601 13.79 17.8001 13.8 17.7501 13.82C17.9201 13.96 18.0701 14.1 18.2101 14.27C18.5601 14.7 18.7601 15.18 18.8001 15.69C18.8401 16.12 18.7801 16.5 18.6401 16.86C18.5101 17.19 18.3001 17.5 18.0301 17.78C17.7201 18.11 17.3301 18.38 16.9001 18.58C16.6001 18.71 16.2901 18.82 15.9901 18.89H15.9801C15.6101 19.18 15.1501 19.35 14.6501 19.35H9.35006C8.85006 19.35 8.38006 19.17 8.01006 18.88C7.93006 18.87 7.85006 18.85 7.77006 18.83C7.53006 18.76 7.28006 18.66 7.00006 18.52C6.81006 18.43 6.56006 18.3 6.33006 18.11C6.07006 17.89 5.73006 17.59 5.50006 17.14C5.37006 16.91 5.28006 16.66 5.22006 16.38C5.15006 16.08 5.15006 15.76 5.22006 15.45C5.31006 15.03 5.47006 14.68 5.70006 14.38C5.86006 14.17 6.05006 13.99 6.26006 13.82C5.91006 13.71 5.60006 13.51 5.37006 13.22C4.98006 12.73 4.84006 12.14 4.99006 11.55C5.12006 11.06 5.41006 10.65 5.83006 10.38C5.84006 10.35 5.84006 10.33 5.84006 10.31L5.86006 10.18C5.92006 9.77 6.04006 9.35 6.21006 8.91C6.35006 8.56 6.52006 8.23 6.74006 7.88C6.87006 7.68 7.01006 7.48 7.17006 7.29V6.85C7.17006 5.64 8.15006 4.66 9.35006 4.66H14.6501C15.8501 4.66 16.8301 5.64 16.8301 6.85V7.3C16.9701 7.47 17.1101 7.66 17.2301 7.85C17.4201 8.15 17.6001 8.47 17.7601 8.85C17.9001 9.18 18.0101 9.53 18.0901 9.93C18.1201 10.08 18.1501 10.23 18.1701 10.38C18.4701 10.57 18.7201 10.85 18.8801 11.2C19.1001 11.68 19.1301 12.17 18.9501 12.64Z" fill="#B676FE"/>
<path d="M11.9998 12.93C10.2998 12.93 8.6098 12.93 6.9098 12.93C6.6098 12.93 6.3498 12.83 6.1598 12.6C5.9698 12.37 5.8898 12.1 5.9698 11.8C6.0398 11.54 6.1898 11.34 6.4098 11.21C6.4998 11.16 6.5998 11.13 6.6998 11.11C6.7598 11.11 6.7998 11.08 6.7898 11C6.7698 10.77 6.8298 10.55 6.8598 10.33C6.9098 9.97001 7.0098 9.62001 7.1498 9.28001C7.2698 8.98001 7.4198 8.69001 7.5898 8.42001C7.8698 7.97001 8.2198 7.58001 8.6098 7.24001C8.8298 7.05001 9.0598 6.89001 9.3098 6.73001C9.5598 6.57001 9.8298 6.44001 10.0998 6.33001C10.4098 6.21001 10.7298 6.12001 11.0498 6.06001C11.5398 5.97001 12.0298 5.97001 12.5198 6.01001C12.7298 6.03001 12.9498 6.07001 13.1598 6.12001C13.3998 6.18001 13.6298 6.25001 13.8698 6.33001C14.0398 6.39001 14.1998 6.47001 14.3598 6.56001C14.5698 6.67001 14.7698 6.79001 14.9598 6.93001C15.2298 7.11001 15.4698 7.32001 15.6998 7.55001C15.9598 7.81001 16.1898 8.10001 16.3898 8.41001C16.5698 8.68001 16.7098 8.97001 16.8398 9.26001C16.9598 9.54001 17.0498 9.84001 17.1098 10.14C17.1698 10.43 17.2098 10.72 17.2098 11.01C17.2098 11.08 17.2298 11.1 17.2998 11.11C17.6198 11.16 17.8498 11.34 17.9798 11.63C18.0798 11.84 18.1098 12.06 18.0198 12.3C17.9198 12.56 17.7698 12.75 17.5198 12.85C17.3898 12.91 17.2498 12.94 17.1098 12.93C15.4098 12.93 13.6998 12.93 11.9998 12.93Z" fill="#6AF8C8"/>
<path d="M9.28998 13.82C9.56998 13.81 9.83998 13.84 10.11 13.89C10.51 13.96 10.89 14.1 11.26 14.28C11.56 14.43 11.88 14.47 12.21 14.44C12.47 14.41 12.7 14.29 12.93 14.19C13.23 14.05 13.54 13.97 13.86 13.9C14.22 13.82 14.59 13.83 14.95 13.83C15.14 13.83 15.32 13.87 15.5 13.9C15.77 13.93 16.02 14.01 16.27 14.11C16.48 14.19 16.68 14.29 16.87 14.41C17.08 14.55 17.28 14.72 17.44 14.91C17.65 15.16 17.78 15.45 17.81 15.78C17.83 16.03 17.81 16.26 17.72 16.49C17.63 16.72 17.49 16.92 17.32 17.1C17.08 17.35 16.8 17.54 16.49 17.68C16.18 17.82 15.86 17.92 15.53 17.98C15.11 18.04 14.69 18.06 14.26 18.03C13.92 18 13.6 17.93 13.28 17.83C13.1 17.77 12.92 17.68 12.75 17.6C12.38 17.42 12 17.36 11.59 17.48C11.37 17.54 11.18 17.67 10.96 17.75C10.69 17.86 10.41 17.95 10.12 17.99C9.69998 18.06 9.27998 18.08 8.84998 18.04C8.57998 18.01 8.30998 17.96 8.04998 17.89C7.84998 17.83 7.64998 17.75 7.45998 17.66C7.28998 17.57 7.11998 17.48 6.96998 17.36C6.73998 17.18 6.52998 16.97 6.38998 16.71C6.29998 16.55 6.24998 16.38 6.20998 16.2C6.16998 16.03 6.17998 15.86 6.20998 15.69C6.25998 15.45 6.34998 15.22 6.49998 15.02C6.66998 14.8 6.86998 14.61 7.10998 14.45C7.28998 14.33 7.47998 14.22 7.67998 14.14C7.92998 14.04 8.18998 13.97 8.44998 13.92C8.72998 13.87 9.00998 13.83 9.28998 13.85V13.82ZM14.71 15.33C14.58 15.33 14.45 15.35 14.32 15.37C14.05 15.41 13.8 15.51 13.62 15.73C13.56 15.8 13.51 15.89 13.56 15.99C13.62 16.14 13.73 16.24 13.87 16.32C14.13 16.46 14.42 16.51 14.71 16.52C14.86 16.52 15 16.49 15.14 16.46C15.37 16.42 15.58 16.33 15.74 16.16C15.79 16.11 15.84 16.04 15.85 15.96C15.86 15.77 15.74 15.67 15.6 15.58C15.33 15.4 15.02 15.36 14.71 15.35V15.33ZM9.26998 15.33C9.08998 15.34 8.88998 15.36 8.68998 15.43C8.48998 15.5 8.29998 15.59 8.18998 15.78C8.13998 15.86 8.11998 15.94 8.16998 16.03C8.25998 16.2 8.40998 16.31 8.57998 16.38C8.88998 16.5 9.20998 16.55 9.53998 16.5C9.78998 16.46 10.03 16.41 10.23 16.25C10.33 16.17 10.42 16.09 10.44 15.95C10.46 15.76 10.33 15.66 10.2 15.57C9.92998 15.39 9.61998 15.34 9.26998 15.33Z" fill="#6AF8C8"/>
</g>
<defs>
<clipPath id="clip0_1_1899">
<rect width="24" height="24" fill="white"/>
</clipPath>
</defs>
</svg>
