<svg width="24" height="24" viewBox="0 0 24 24" fill="none" xmlns="http://www.w3.org/2000/svg">
<g clip-path="url(#clip0_1_1901)">
<path d="M14.64 3.48001H9.33998C7.4843 3.48001 5.97998 4.98433 5.97998 6.84001V17.16C5.97998 19.0157 7.4843 20.52 9.33998 20.52H14.64C16.4957 20.52 18 19.0157 18 17.16V6.84001C18 4.98433 16.4957 3.48001 14.64 3.48001Z" stroke="#B676FE" stroke-width="2.35" stroke-miterlimit="10"/>
<path d="M11.9998 10.43C12.8006 10.43 13.4498 9.78081 13.4498 8.98C13.4498 8.17919 12.8006 7.53 11.9998 7.53C11.199 7.53 10.5498 8.17919 10.5498 8.98C10.5498 9.78081 11.199 10.43 11.9998 10.43Z" fill="#6AF8C8"/>
<path d="M11.9998 16.03C12.8006 16.03 13.4498 15.3808 13.4498 14.58C13.4498 13.7792 12.8006 13.13 11.9998 13.13C11.199 13.13 10.5498 13.7792 10.5498 14.58C10.5498 15.3808 11.199 16.03 11.9998 16.03Z" fill="#6AF8C8"/>
</g>
<defs>
<clipPath id="clip0_1_1901">
<rect width="24" height="24" fill="white"/>
</clipPath>
</defs>
</svg>
