<svg width="25" height="24" viewBox="0 0 25 24" fill="none" xmlns="http://www.w3.org/2000/svg">
<g clip-path="url(#clip0_1_4512)">
<path d="M15.265 3.47998H9.96498C8.1093 3.47998 6.60498 4.9843 6.60498 6.83998V17.16C6.60498 19.0157 8.1093 20.52 9.96498 20.52H15.265C17.1207 20.52 18.625 19.0157 18.625 17.16V6.83998C18.625 4.9843 17.1207 3.47998 15.265 3.47998Z" stroke="#B676FE" stroke-width="2.35" stroke-miterlimit="10"/>
<path d="M12.6248 10.43C13.4256 10.43 14.0748 9.78084 14.0748 8.98003C14.0748 8.17922 13.4256 7.53003 12.6248 7.53003C11.824 7.53003 11.1748 8.17922 11.1748 8.98003C11.1748 9.78084 11.824 10.43 12.6248 10.43Z" fill="#6AF8C8"/>
<path d="M12.6248 16.03C13.4256 16.03 14.0748 15.3808 14.0748 14.58C14.0748 13.7792 13.4256 13.13 12.6248 13.13C11.824 13.13 11.1748 13.7792 11.1748 14.58C11.1748 15.3808 11.824 16.03 12.6248 16.03Z" fill="#6AF8C8"/>
</g>
<defs>
<clipPath id="clip0_1_4512">
<rect width="24" height="24" fill="white" transform="translate(0.625)"/>
</clipPath>
</defs>
</svg>
