<svg width="25" height="24" viewBox="0 0 25 24" fill="none" xmlns="http://www.w3.org/2000/svg">
<g clip-path="url(#clip0_1_4496)">
<path d="M15.5251 2.31006H10.2251C7.72506 2.31006 5.68506 4.35006 5.68506 6.85006V17.1601C5.68506 19.6601 7.72506 21.7001 10.2251 21.7001H15.5251C18.0251 21.7001 20.0651 19.6601 20.0651 17.1601V6.85006C20.0651 4.35006 18.0251 2.31006 15.5251 2.31006ZM19.8251 12.6401C19.6351 13.1601 19.2751 13.5501 18.7951 13.7601C18.7351 13.7901 18.6751 13.8001 18.6251 13.8201C18.7951 13.9601 18.9451 14.1001 19.0851 14.2701C19.4351 14.7001 19.6351 15.1801 19.6751 15.6901C19.7151 16.1201 19.6551 16.5001 19.5151 16.8601C19.3851 17.1901 19.1751 17.5001 18.9051 17.7801C18.5951 18.1101 18.2051 18.3801 17.7751 18.5801C17.4751 18.7101 17.1651 18.8201 16.8651 18.8901H16.8551C16.4851 19.1801 16.0251 19.3501 15.5251 19.3501H10.2251C9.72506 19.3501 9.25506 19.1701 8.88506 18.8801C8.80506 18.8701 8.72506 18.8501 8.64506 18.8301C8.40506 18.7601 8.15506 18.6601 7.87506 18.5201C7.68506 18.4301 7.43506 18.3001 7.20506 18.1101C6.94506 17.8901 6.60506 17.5901 6.37506 17.1401C6.24506 16.9101 6.15506 16.6601 6.09506 16.3801C6.02506 16.0801 6.02506 15.7601 6.09506 15.4501C6.18506 15.0301 6.34506 14.6801 6.57506 14.3801C6.73506 14.1701 6.92506 13.9901 7.13506 13.8201C6.78506 13.7101 6.47506 13.5101 6.24506 13.2201C5.85506 12.7301 5.71506 12.1401 5.86506 11.5501C5.99506 11.0601 6.28506 10.6501 6.70506 10.3801C6.71506 10.3501 6.71506 10.3301 6.71506 10.3101L6.73506 10.1801C6.79506 9.77006 6.91506 9.35006 7.08506 8.91006C7.22506 8.56006 7.39506 8.23006 7.61506 7.88006C7.74506 7.68006 7.88506 7.48006 8.04506 7.29006V6.85006C8.04506 5.64006 9.02506 4.66006 10.2251 4.66006H15.5251C16.7251 4.66006 17.7051 5.64006 17.7051 6.85006V7.30006C17.8451 7.47006 17.9851 7.66006 18.1051 7.85006C18.2951 8.15006 18.4751 8.47006 18.6351 8.85006C18.7751 9.18006 18.8851 9.53006 18.9651 9.93006C18.9951 10.0801 19.0251 10.2301 19.0451 10.3801C19.3451 10.5701 19.5951 10.8501 19.7551 11.2001C19.9751 11.6801 20.0051 12.1701 19.8251 12.6401Z" fill="#B676FE"/>
<path d="M12.8748 12.93C11.1748 12.93 9.4848 12.93 7.7848 12.93C7.4848 12.93 7.2248 12.83 7.0348 12.6C6.8448 12.37 6.7648 12.1 6.8448 11.8C6.9148 11.54 7.0648 11.34 7.2848 11.21C7.3748 11.16 7.4748 11.13 7.5748 11.11C7.6348 11.11 7.6748 11.08 7.6648 11C7.6448 10.77 7.7048 10.55 7.7348 10.33C7.7848 9.96997 7.8848 9.61997 8.0248 9.27997C8.1448 8.97997 8.2948 8.68998 8.4648 8.41998C8.7448 7.96997 9.0948 7.57997 9.4848 7.23997C9.7048 7.04997 9.9348 6.88997 10.1848 6.72997C10.4348 6.56997 10.7048 6.43997 10.9748 6.32997C11.2848 6.20997 11.6048 6.11997 11.9248 6.05997C12.4148 5.96997 12.9048 5.96998 13.3948 6.00998C13.6048 6.02998 13.8248 6.06997 14.0348 6.11997C14.2748 6.17997 14.5048 6.24997 14.7448 6.32997C14.9148 6.38997 15.0748 6.46997 15.2348 6.55997C15.4448 6.66997 15.6448 6.78997 15.8348 6.92997C16.1048 7.10997 16.3448 7.31998 16.5748 7.54998C16.8348 7.80998 17.0648 8.09997 17.2648 8.40997C17.4448 8.67997 17.5848 8.96998 17.7148 9.25998C17.8348 9.53998 17.9248 9.83998 17.9848 10.14C18.0448 10.43 18.0848 10.72 18.0848 11.01C18.0848 11.08 18.1048 11.1 18.1748 11.11C18.4948 11.16 18.7248 11.34 18.8548 11.63C18.9548 11.84 18.9848 12.06 18.8948 12.3C18.7948 12.56 18.6448 12.75 18.3948 12.85C18.2648 12.91 18.1248 12.94 17.9848 12.93C16.2848 12.93 14.5748 12.93 12.8748 12.93Z" fill="#6AF8C8"/>
<path d="M10.165 13.82C10.445 13.81 10.715 13.84 10.985 13.89C11.385 13.96 11.765 14.1 12.135 14.28C12.435 14.43 12.755 14.47 13.085 14.44C13.345 14.41 13.575 14.29 13.805 14.19C14.105 14.05 14.415 13.97 14.735 13.9C15.095 13.82 15.465 13.83 15.825 13.83C16.015 13.83 16.195 13.87 16.375 13.9C16.645 13.93 16.895 14.01 17.145 14.11C17.355 14.19 17.555 14.29 17.745 14.41C17.955 14.55 18.155 14.72 18.315 14.91C18.525 15.16 18.655 15.45 18.685 15.78C18.705 16.03 18.685 16.26 18.595 16.49C18.505 16.72 18.365 16.92 18.195 17.1C17.955 17.35 17.675 17.54 17.365 17.68C17.055 17.82 16.735 17.92 16.405 17.98C15.985 18.04 15.565 18.06 15.135 18.03C14.795 18 14.475 17.93 14.155 17.83C13.975 17.77 13.795 17.68 13.625 17.6C13.255 17.42 12.875 17.36 12.465 17.48C12.245 17.54 12.055 17.67 11.835 17.75C11.565 17.86 11.285 17.95 10.995 17.99C10.575 18.06 10.155 18.08 9.72498 18.04C9.45498 18.01 9.18498 17.96 8.92498 17.89C8.72498 17.83 8.52498 17.75 8.33498 17.66C8.16498 17.57 7.99498 17.48 7.84498 17.36C7.61498 17.18 7.40498 16.97 7.26498 16.71C7.17498 16.55 7.12498 16.38 7.08498 16.2C7.04498 16.03 7.05498 15.86 7.08498 15.69C7.13498 15.45 7.22498 15.22 7.37498 15.02C7.54498 14.8 7.74498 14.61 7.98498 14.45C8.16498 14.33 8.35498 14.22 8.55498 14.14C8.80498 14.04 9.06498 13.97 9.32498 13.92C9.60498 13.87 9.88498 13.83 10.165 13.85V13.82ZM15.585 15.33C15.455 15.33 15.325 15.35 15.195 15.37C14.925 15.41 14.675 15.51 14.495 15.73C14.435 15.8 14.385 15.89 14.435 15.99C14.495 16.14 14.605 16.24 14.745 16.32C15.005 16.46 15.295 16.51 15.585 16.52C15.735 16.52 15.875 16.49 16.015 16.46C16.245 16.42 16.455 16.33 16.615 16.16C16.665 16.11 16.715 16.04 16.725 15.96C16.735 15.77 16.615 15.67 16.475 15.58C16.205 15.4 15.895 15.36 15.585 15.35V15.33ZM10.145 15.33C9.96498 15.34 9.76498 15.36 9.56498 15.43C9.36498 15.5 9.17498 15.59 9.06498 15.78C9.01498 15.86 8.99498 15.94 9.04498 16.03C9.13498 16.2 9.28498 16.31 9.45498 16.38C9.76498 16.5 10.085 16.55 10.415 16.5C10.665 16.46 10.905 16.41 11.105 16.25C11.205 16.17 11.295 16.09 11.315 15.95C11.335 15.76 11.205 15.66 11.075 15.57C10.805 15.39 10.495 15.34 10.145 15.33Z" fill="#6AF8C8"/>
</g>
<defs>
<clipPath id="clip0_1_4496">
<rect width="24" height="24" fill="white" transform="translate(0.875)"/>
</clipPath>
</defs>
</svg>
