<svg width="25" height="24" viewBox="0 0 25 24" fill="none" xmlns="http://www.w3.org/2000/svg">
<g clip-path="url(#clip0_1_4506)">
<path d="M17.2848 4.81995H13.6748V6.89995L14.5548 6.06995C14.8548 5.78995 15.2748 5.63995 15.6548 5.64995C16.0748 5.65995 16.4548 5.82995 16.7448 6.12995C17.0048 6.39995 17.1548 6.77995 17.1648 7.15995H17.2848C18.4948 7.15995 19.4748 8.14995 19.4748 9.34995V10.5199H21.8248V9.34995C21.8248 6.83995 19.7848 4.81995 17.2848 4.81995ZM2.4248 9.34995V10.5199H4.7748V9.34995C4.7748 8.14995 5.7548 7.15995 6.9648 7.15995H7.0848C7.0948 6.78995 7.2348 6.41995 7.5148 6.12995C7.79481 5.82995 8.1748 5.65995 8.5948 5.64995C9.0348 5.64995 9.3948 5.78995 9.6948 6.06995L10.5748 6.89995V4.81995H6.9648C4.4648 4.81995 2.4248 6.83995 2.4248 9.34995ZM19.4648 13.4799V14.6499C19.4648 15.8499 18.4848 16.8299 17.2748 16.8299H6.9748C5.7648 16.8299 4.7848 15.8499 4.7848 14.6499V13.4799H2.4348V14.6499C2.4348 17.1499 4.4748 19.1799 6.9748 19.1799H17.2848C19.7848 19.1799 21.8248 17.1499 21.8248 14.6499V13.4799H19.4748H19.4648Z" fill="#B676FE"/>
<path d="M6.49521 8.51001L9.81521 12M9.81521 12L6.49521 15.49M9.81521 12H1.84521" stroke="#6AF8C8" stroke-width="1.59" stroke-linecap="round" stroke-linejoin="round"/>
<path d="M17.7551 15.49L14.4351 12M14.4351 12L17.7551 8.51001M14.4351 12H22.4051" stroke="#6AF8C8" stroke-width="1.59" stroke-linecap="round" stroke-linejoin="round"/>
<path d="M15.6148 7.19004L12.1248 10.51M12.1248 10.51L8.63477 7.19004M12.1248 10.51V2.54004" stroke="#6AF8C8" stroke-width="1.59" stroke-linecap="round" stroke-linejoin="round"/>
</g>
<defs>
<clipPath id="clip0_1_4506">
<rect width="24" height="24" fill="white" transform="translate(0.125)"/>
</clipPath>
</defs>
</svg>
