<svg width="25" height="24" viewBox="0 0 25 24" fill="none" xmlns="http://www.w3.org/2000/svg">
<g clip-path="url(#clip0_1_4499)">
<path d="M19.1048 12.5001L18.6348 14.7401C18.5848 14.9601 18.5448 15.1801 18.5048 15.4001C18.4748 15.5501 18.4048 15.6801 18.3348 15.8001C18.4448 15.9601 18.5548 16.1801 18.5548 16.5001C18.5448 16.6501 18.5448 16.7901 18.5448 16.9301V17.2601C18.5348 18.1901 17.7648 18.9801 16.8448 19.0201H16.4048C16.0748 19.2301 15.6848 19.3501 15.2648 19.3501H9.9748C9.56481 19.3501 9.1848 19.2301 8.8548 19.0301H8.5448C7.6648 19.0301 6.8948 18.4101 6.7248 17.5601C6.6948 17.3901 6.6948 17.2401 6.6948 17.1401V16.0701L6.9148 15.8001C6.8348 15.6801 6.7748 15.5401 6.7348 15.3801L6.1048 12.3501C6.0648 12.1701 6.0248 11.9901 5.9948 11.8101C5.7848 11.7501 5.5948 11.6601 5.4248 11.5401V17.1601C5.4248 19.6601 7.4648 21.7001 9.9748 21.7001H15.2648C17.7648 21.7001 19.8048 19.6601 19.8048 17.1601V11.5501C19.6348 11.6701 19.4548 11.7601 19.2548 11.8201C19.2048 12.0501 19.1548 12.2701 19.1048 12.5001ZM15.2648 2.31006H9.9748C7.4648 2.31006 5.4248 4.35006 5.4248 6.85006V8.09006C5.8148 7.82006 6.2848 7.69006 6.7648 7.72006C7.1448 7.75006 7.4948 7.88006 7.7848 8.09006V6.85006C7.7848 5.64006 8.7648 4.66006 9.9748 4.66006H15.2648C16.4748 4.66006 17.4548 5.64006 17.4548 6.85006V8.09006C17.5648 8.01006 17.6848 7.94006 17.8048 7.89006C18.3748 7.64006 19.0348 7.66006 19.5948 7.94006C19.6648 7.98006 19.7348 8.02006 19.8048 8.07006V6.85006C19.8048 4.35006 17.7648 2.31006 15.2648 2.31006Z" fill="#B676FE"/>
<path d="M5.4951 9.72C5.5351 9.63 5.5351 9.54 5.5651 9.45C5.7351 8.97 6.1951 8.67 6.6951 8.71C7.1751 8.75 7.5951 9.12 7.6851 9.6C7.7451 9.9 7.6851 10.19 7.4951 10.44C7.4451 10.5 7.4651 10.53 7.5151 10.57C7.9951 10.97 8.4851 11.37 8.9651 11.78C9.2451 12.01 9.5251 12.25 9.8151 12.48C9.8951 12.54 9.8951 12.54 9.9451 12.44C10.1751 11.98 10.3951 11.52 10.6251 11.07C11.1151 10.09 11.5951 9.11 12.0851 8.13C12.1151 8.06 12.1151 8.03 12.0451 7.99C11.6751 7.74 11.4951 7.39 11.5351 6.95C11.5751 6.51 11.8851 6.11 12.3751 6C12.9851 5.86 13.5451 6.22 13.6951 6.82C13.8051 7.26 13.6151 7.74 13.2051 8C13.1451 8.04 13.1251 8.07 13.1651 8.14C13.6751 9.15 14.1751 10.16 14.6751 11.17C14.8951 11.6 15.1051 12.04 15.3151 12.47C15.3451 12.54 15.3751 12.54 15.4251 12.49C16.0251 11.99 16.6251 11.49 17.2251 10.99C17.3851 10.86 17.5451 10.72 17.7051 10.59C17.7751 10.54 17.7851 10.5 17.7351 10.42C17.3451 9.84 17.5651 9.08 18.2051 8.8C18.8251 8.53 19.5651 8.9 19.7051 9.57C19.8451 10.19 19.4351 10.79 18.8051 10.89C18.7051 10.91 18.6051 10.91 18.5051 10.89C18.4351 10.89 18.4051 10.9 18.3951 10.97C18.3051 11.42 18.2151 11.86 18.1151 12.31C17.9751 12.95 17.8451 13.6 17.7051 14.24C17.6351 14.56 17.5651 14.88 17.5051 15.2C17.4951 15.28 17.4551 15.29 17.3951 15.29C16.1451 15.29 14.9051 15.29 13.6551 15.29C11.7151 15.29 9.7851 15.29 7.8451 15.29C7.7551 15.29 7.7251 15.26 7.7051 15.18C7.5051 14.21 7.2951 13.24 7.0951 12.27C7.0051 11.85 6.9151 11.43 6.8351 11.01C6.8151 10.9 6.7551 10.91 6.6751 10.91C6.1251 10.94 5.6751 10.63 5.5251 10.1C5.5051 10.03 5.4951 9.95 5.4751 9.87C5.4751 9.82 5.4751 9.77 5.4751 9.73L5.4951 9.72Z" fill="#6AF8C8"/>
<path d="M12.6249 16.38C14.2349 16.38 15.8449 16.38 17.4449 16.38C17.5249 16.38 17.5549 16.4 17.5449 16.48C17.5449 16.74 17.5449 16.99 17.5449 17.25C17.5449 17.65 17.1949 18 16.7949 18.02C16.7349 18.02 16.6849 18.02 16.6249 18.02C13.9349 18.02 11.2449 18.02 8.54488 18.02C8.12488 18.02 7.78488 17.73 7.70488 17.36C7.68488 17.27 7.69488 17.19 7.69488 17.1C7.69488 16.89 7.69488 16.68 7.69488 16.47C7.69488 16.4 7.71488 16.37 7.78488 16.37C9.39488 16.37 11.0049 16.37 12.6149 16.37L12.6249 16.38Z" fill="#6AF8C8"/>
</g>
<defs>
<clipPath id="clip0_1_4499">
<rect width="24" height="24" fill="white" transform="translate(0.625)"/>
</clipPath>
</defs>
</svg>
