<svg width="25" height="24" viewBox="0 0 25 24" fill="none" xmlns="http://www.w3.org/2000/svg">
<g clip-path="url(#clip0_1_4509)">
<path d="M23.345 11.89V12.1C23.275 12.12 23.295 12.2 23.225 12.24C23.095 12.3 22.995 12.4 22.875 12.48C22.655 12.64 22.425 12.8 22.205 12.96C21.985 13.12 21.745 13.26 21.525 13.42C21.245 13.61 20.965 13.82 20.685 14.01C20.455 14.17 20.225 14.33 19.995 14.49C19.945 14.52 19.915 14.56 19.975 14.61C20.095 14.72 20.205 14.84 20.325 14.95C20.565 15.17 20.745 15.41 20.795 15.75C20.835 16.03 20.815 16.29 20.695 16.56C20.605 16.74 20.485 16.9 20.335 17.02C20.185 17.14 20.015 17.24 19.805 17.27C19.605 17.3 19.405 17.32 19.215 17.27C19.175 17.27 19.105 17.24 19.105 17.32C19.105 17.53 19.005 17.71 18.895 17.88C18.705 18.16 18.435 18.35 18.105 18.41C17.815 18.47 17.525 18.46 17.255 18.31C17.185 18.27 17.145 18.3 17.135 18.38C17.115 18.51 17.055 18.63 16.985 18.73C16.675 19.21 16.025 19.48 15.475 19.27C15.405 19.24 15.355 19.25 15.285 19.31C15.075 19.49 14.815 19.61 14.545 19.66C14.165 19.74 13.785 19.74 13.405 19.63C13.355 19.62 13.315 19.61 13.265 19.63C12.925 19.76 12.575 19.81 12.205 19.81C11.805 19.81 11.405 19.74 11.055 19.56C10.755 19.41 10.495 19.2 10.285 18.94C10.255 18.91 10.245 18.86 10.175 18.87C9.81502 18.93 9.48502 18.85 9.19502 18.64C8.96502 18.47 8.79502 18.26 8.72502 17.97C8.65502 17.69 8.65502 17.68 8.36502 17.69C8.02502 17.71 7.72502 17.6 7.47502 17.38C7.20502 17.15 7.05502 16.85 7.03502 16.5C7.03502 16.44 7.03502 16.39 6.95502 16.41C6.70502 16.47 6.47502 16.4 6.26502 16.3C5.87502 16.13 5.61502 15.82 5.52502 15.4C5.46502 15.15 5.46502 14.89 5.57502 14.63C5.63502 14.48 5.72502 14.34 5.82502 14.22C5.84502 14.19 5.89502 14.17 5.82502 14.12C5.65502 13.99 5.48502 13.84 5.31502 13.7C5.12502 13.55 4.94502 13.4 4.75502 13.24C4.56502 13.08 4.37502 12.92 4.18502 12.76C3.95502 12.57 3.71502 12.37 3.48502 12.18C3.29502 12.02 3.09502 11.87 2.91502 11.71C2.73502 11.55 2.51502 11.44 2.39502 11.22C2.39502 11.16 2.39502 11.1 2.39502 11.04C2.52502 10.85 2.65502 10.66 2.78502 10.48C2.99502 10.19 3.20502 9.90001 3.40502 9.60001C3.61502 9.30001 3.82502 8.99001 4.04502 8.69001C4.20502 8.47001 4.35502 8.24001 4.52502 8.02001C4.69502 7.80001 4.82502 7.57001 4.98502 7.34001C5.18502 7.06001 5.38502 6.79001 5.58502 6.51001C5.69502 6.36001 5.81502 6.30001 5.98502 6.36001C6.33502 6.50001 6.67502 6.63001 7.04502 6.72001C7.34502 6.79001 7.64502 6.85001 7.94502 6.76001C8.23502 6.68001 8.53502 6.59001 8.81502 6.47001C9.19502 6.31001 9.59502 6.20001 9.99502 6.09001C10.055 6.07001 10.115 6.06001 10.175 6.06001C10.275 6.06001 10.375 6.05001 10.465 6.01001C10.665 6.01001 10.865 6.01001 11.065 6.01001C11.145 6.03001 11.235 6.05001 11.315 6.06001C11.655 6.09001 11.965 6.21001 12.285 6.33001C12.525 6.43001 12.755 6.56001 12.975 6.70001C13.055 6.75001 13.095 6.76001 13.175 6.70001C13.235 6.66001 13.305 6.62001 13.375 6.59001C13.725 6.45001 14.075 6.32001 14.455 6.25001C14.955 6.16001 15.455 6.17001 15.945 6.28001C16.265 6.35001 16.585 6.46001 16.885 6.60001C17.285 6.78001 17.675 6.99001 18.075 7.15001C18.305 7.24001 18.535 7.29001 18.785 7.25001C18.885 7.23001 18.985 7.22001 19.085 7.21001C19.445 7.20001 19.775 7.07001 20.115 6.97001C20.295 6.92001 20.425 6.94001 20.535 7.09001C20.625 7.22001 20.695 7.36001 20.775 7.50001C20.895 7.71001 21.015 7.91001 21.135 8.12001C21.265 8.34001 21.385 8.55001 21.515 8.77001C21.635 8.97001 21.755 9.18001 21.865 9.38001C21.985 9.59001 22.115 9.81001 22.245 10.02C22.365 10.23 22.485 10.43 22.605 10.64C22.725 10.85 22.855 11.07 22.975 11.28C23.095 11.49 23.215 11.69 23.335 11.89H23.345ZM8.66502 14.19C8.66502 14.19 8.74502 14.12 8.77502 14.09C9.03502 13.84 9.34502 13.72 9.69502 13.72C9.94502 13.72 10.175 13.79 10.375 13.92C10.565 14.04 10.725 14.22 10.845 14.43C10.915 14.57 10.945 14.72 10.985 14.87C11.005 14.94 11.015 14.96 11.085 14.94C11.515 14.86 11.905 14.96 12.225 15.27C12.445 15.48 12.605 15.74 12.625 16.06C12.625 16.18 12.625 16.3 12.625 16.42C12.625 16.51 12.635 16.58 12.725 16.64C12.835 16.71 12.925 16.82 13.015 16.92C13.115 17.04 13.215 17.18 13.245 17.33C13.285 17.56 13.285 17.8 13.165 18.02C13.095 18.14 13.035 18.27 12.965 18.4C12.925 18.47 12.905 18.55 12.955 18.6C13.135 18.8 13.355 18.96 13.615 19.02C13.985 19.11 14.365 19.1 14.715 18.93C14.855 18.86 14.865 18.84 14.755 18.73C14.435 18.42 14.125 18.1 13.815 17.79C13.725 17.7 13.715 17.47 13.795 17.38C13.905 17.26 14.075 17.24 14.215 17.33C14.305 17.39 14.375 17.48 14.455 17.56C14.685 17.79 14.915 18.03 15.155 18.25C15.305 18.39 15.435 18.56 15.635 18.65C15.905 18.78 16.255 18.68 16.475 18.39C16.635 18.19 16.615 17.79 16.435 17.58C16.255 17.38 16.055 17.2 15.865 17.01C15.525 16.67 15.185 16.34 14.855 15.99C14.725 15.85 14.565 15.74 14.465 15.57C14.395 15.45 14.435 15.3 14.555 15.2C14.635 15.14 14.855 15.13 14.925 15.19C15.175 15.43 15.415 15.68 15.665 15.92C15.925 16.18 16.185 16.45 16.445 16.71C16.745 17.01 17.045 17.3 17.345 17.6C17.555 17.81 17.875 17.85 18.125 17.74C18.515 17.56 18.635 17.1 18.405 16.73C18.345 16.63 18.245 16.55 18.165 16.47C17.905 16.2 17.645 15.95 17.385 15.69C17.125 15.43 16.865 15.18 16.605 14.92C16.305 14.62 15.995 14.32 15.695 14.01C15.595 13.91 15.475 13.83 15.425 13.7C15.365 13.56 15.405 13.43 15.555 13.32C15.645 13.25 15.815 13.26 15.895 13.34C16.095 13.53 16.295 13.73 16.495 13.92C16.865 14.29 17.225 14.66 17.595 15.03C18.065 15.5 18.555 15.95 19.005 16.44C19.245 16.7 19.695 16.73 19.955 16.53C20.275 16.27 20.295 15.75 19.995 15.48C19.835 15.33 19.685 15.17 19.535 15.01C19.275 14.75 19.015 14.49 18.755 14.23C18.525 14 18.305 13.78 18.075 13.55C17.815 13.29 17.545 13.02 17.285 12.76C17.025 12.5 16.765 12.25 16.515 11.99C16.215 11.69 15.915 11.38 15.605 11.08C15.315 10.78 15.015 10.49 14.725 10.19C14.555 10.02 14.495 9.98001 14.355 10.05C14.145 10.16 13.965 10.31 13.805 10.48C13.585 10.71 13.375 10.95 13.175 11.19C12.905 11.52 12.635 11.85 12.325 12.14C12.025 12.41 11.705 12.63 11.295 12.68C10.995 12.72 10.695 12.68 10.445 12.5C10.095 12.25 10.025 11.87 10.075 11.47C10.105 11.22 10.155 10.98 10.225 10.74C10.325 10.42 10.445 10.12 10.585 9.82001C10.725 9.51001 10.895 9.22001 11.065 8.92001C11.255 8.57001 11.485 8.25001 11.735 7.94001C11.965 7.66001 12.215 7.40001 12.505 7.18001C12.545 7.15001 12.555 7.12001 12.505 7.09001C12.115 6.89001 11.715 6.73001 11.275 6.66001C10.745 6.57001 10.235 6.64001 9.73502 6.79001C9.29502 6.92001 8.88502 7.11001 8.44502 7.25001C8.21502 7.33001 7.97502 7.40001 7.72502 7.40001C7.35502 7.40001 6.99502 7.32001 6.64502 7.22001C6.45502 7.17001 6.26502 7.10001 6.08502 7.03001C6.04502 7.01001 6.02502 7.02001 5.99502 7.05001C5.97502 7.09001 5.95502 7.12001 5.92502 7.16001C5.65502 7.53001 5.38502 7.90001 5.12502 8.28001C4.92502 8.56001 4.73502 8.85001 4.53502 9.13001C4.31502 9.44001 4.09502 9.75001 3.87502 10.06C3.67502 10.35 3.47502 10.64 3.27502 10.92C3.20502 11.02 3.21502 11.08 3.31502 11.16C3.50502 11.3 3.68502 11.45 3.86502 11.6C4.26502 11.94 4.66502 12.28 5.07502 12.61C5.45502 12.92 5.83502 13.22 6.19502 13.54C6.36502 13.69 6.36502 13.69 6.53502 13.53C6.68502 13.39 6.86502 13.3 7.05502 13.22C7.52502 13.02 8.21502 13.27 8.49502 13.69C8.59502 13.83 8.67502 13.98 8.71502 14.17L8.66502 14.19ZM15.025 6.80001C14.875 6.78001 14.605 6.85001 14.355 6.90001C13.985 6.98001 13.635 7.13001 13.315 7.34001C12.965 7.56001 12.665 7.82001 12.375 8.12001C11.965 8.55001 11.655 9.06001 11.375 9.57001C11.195 9.90001 11.035 10.24 10.905 10.6C10.805 10.88 10.725 11.15 10.675 11.44C10.665 11.52 10.645 11.59 10.655 11.67C10.675 11.78 10.675 11.93 10.785 11.98C11.005 12.1 11.245 12.08 11.475 11.97C11.855 11.78 12.115 11.45 12.405 11.14C12.605 10.92 12.765 10.67 12.965 10.45C13.215 10.17 13.465 9.90001 13.765 9.67001C14.005 9.49001 14.265 9.38001 14.565 9.34001C14.665 9.33001 14.755 9.35001 14.815 9.42001C15.175 9.77001 15.525 10.13 15.875 10.49C16.275 10.89 16.675 11.29 17.075 11.69C17.435 12.05 17.805 12.41 18.165 12.78C18.585 13.2 19.005 13.62 19.425 14.05C19.445 14.07 19.475 14.1 19.495 14.07C19.525 14.02 19.585 14.01 19.635 13.98C19.865 13.81 20.095 13.65 20.325 13.49C20.555 13.33 20.785 13.17 21.015 13.01C21.235 12.86 21.445 12.71 21.655 12.56C21.935 12.35 22.235 12.16 22.525 11.97C22.585 11.93 22.605 11.89 22.565 11.81C22.395 11.54 22.245 11.26 22.085 10.99C21.985 10.82 21.895 10.65 21.795 10.48C21.635 10.21 21.465 9.94001 21.315 9.67001C21.125 9.35001 20.945 9.02001 20.765 8.70001C20.565 8.36001 20.355 8.03001 20.165 7.69001C20.135 7.64001 20.115 7.63001 20.065 7.64001C19.735 7.76001 19.385 7.82001 19.035 7.86001C18.725 7.90001 18.415 7.91001 18.115 7.82001C17.845 7.74001 17.585 7.63001 17.325 7.51001C16.915 7.31001 16.515 7.11001 16.085 6.98001C15.775 6.88001 15.465 6.83001 15.025 6.81001V6.80001ZM8.36502 17.05C8.54502 17.08 8.71502 16.98 8.85502 16.83C9.28502 16.4 9.71502 15.97 10.145 15.54C10.235 15.45 10.295 15.35 10.325 15.24C10.455 14.81 10.175 14.38 9.70502 14.35C9.46502 14.33 9.28502 14.44 9.12502 14.62C8.93502 14.82 8.72502 15.01 8.53502 15.2C8.33502 15.4 8.13502 15.59 7.94502 15.8C7.83502 15.92 7.71502 16.04 7.67502 16.22C7.58502 16.63 7.88502 17.08 8.36502 17.05ZM10.045 18.25C10.165 18.25 10.335 18.19 10.465 18.05C10.915 17.6 11.365 17.15 11.815 16.7C12.015 16.5 12.055 16.24 11.965 15.99C11.815 15.55 11.305 15.41 10.945 15.65C10.695 15.81 10.515 16.06 10.305 16.26C10.115 16.45 9.91502 16.64 9.73502 16.83C9.59502 16.98 9.43502 17.1 9.33502 17.3C9.14502 17.71 9.47502 18.25 10.035 18.24L10.045 18.25ZM6.12502 15.08C6.08502 15.27 6.16502 15.44 6.29502 15.56C6.61502 15.86 6.93502 15.87 7.26502 15.58C7.47502 15.39 7.66502 15.18 7.86502 14.98C7.99502 14.85 8.06502 14.69 8.06502 14.5C8.06502 14.21 7.91502 13.96 7.59502 13.84C7.34502 13.75 7.12502 13.8 6.93502 13.98C6.73502 14.17 6.52502 14.35 6.33502 14.56C6.20502 14.7 6.06502 14.86 6.10502 15.08H6.12502ZM12.215 19.19C12.275 19.19 12.345 19.17 12.405 19.17C12.455 19.17 12.515 19.18 12.535 19.14C12.555 19.09 12.495 19.06 12.465 19.01C12.365 18.86 12.285 18.71 12.285 18.52C12.285 18.32 12.375 18.16 12.455 18C12.495 17.91 12.575 17.83 12.595 17.73C12.655 17.51 12.545 17.27 12.355 17.15C12.295 17.12 12.245 17.13 12.205 17.18C12.145 17.25 12.065 17.32 11.995 17.39C11.615 17.78 11.245 18.16 10.845 18.53C10.815 18.56 10.795 18.58 10.845 18.62C11.215 19 11.665 19.18 12.195 19.19H12.215Z" fill="#85C7B1"/>

</g>
<defs>
<clipPath id="clip0_1_4509">
<rect width="24" height="24" fill="white" transform="translate(0.875)"/>
</clipPath>
</defs>
</svg>
