<svg width="25" height="24" viewBox="0 0 25 24" fill="none" xmlns="http://www.w3.org/2000/svg">
<g clip-path="url(#clip0_1_4503)">
<path d="M18.3851 11.0001H17.2051V12.7601C17.4751 12.6201 17.7951 12.5901 18.1151 12.6901C18.4351 12.7901 18.6951 13.0101 18.8451 13.3001C18.9951 13.6001 19.0251 13.9401 18.9251 14.2601C18.5751 15.3801 17.9751 16.3501 17.2051 17.1301V17.1501C17.2051 18.3601 16.2251 19.3401 15.0251 19.3401H9.72506C8.63506 19.3401 7.71506 18.5301 7.56506 17.4801C6.28506 16.3601 5.41506 14.7601 5.18506 12.9601V17.1501C5.18506 19.6601 7.22506 21.7001 9.72506 21.7001H15.0251C17.5251 21.7001 19.5651 19.6601 19.5651 17.1501V10.1401C19.4051 10.6401 18.9351 11.0001 18.3851 11.0001ZM15.0251 2.31006H9.72506C7.22506 2.31006 5.18506 4.34006 5.18506 6.85006V11.0401C5.41506 9.23006 6.28506 7.64006 7.56506 6.52006C7.71506 5.47006 8.63506 4.66006 9.72506 4.66006H15.0251C16.0951 4.66006 16.9951 5.45006 17.1651 6.48006C17.2851 5.91006 17.7851 5.49006 18.3851 5.49006C18.8951 5.49006 19.3251 5.79006 19.5151 6.22006C19.2151 4.01006 17.3051 2.31006 15.0251 2.31006Z" fill="#B676FE"/>
<path d="M12.1952 18.76C8.56523 18.76 5.61523 15.73 5.61523 12C5.61523 8.26999 8.56523 5.23999 12.1952 5.23999C14.3752 5.23999 16.4152 6.35999 17.6352 8.19999V6.73999C17.6352 6.31999 17.9752 5.98999 18.3852 5.98999C18.7952 5.98999 19.1352 6.32999 19.1352 6.73999V9.74999C19.1352 10.17 18.7952 10.5 18.3852 10.5H15.4652C15.0452 10.5 14.7152 10.16 14.7152 9.74999C14.7152 9.33999 15.0552 8.99999 15.4652 8.99999H16.3552C15.4052 7.59999 13.8452 6.74999 12.1852 6.74999C9.38524 6.74999 7.10523 9.10999 7.10523 12.01C7.10523 14.91 9.38524 17.27 12.1852 17.27C14.3852 17.27 16.3252 15.82 17.0052 13.66C17.1352 13.27 17.5552 13.05 17.9452 13.17C18.3452 13.3 18.5552 13.72 18.4352 14.11C17.5452 16.89 15.0352 18.77 12.1752 18.77L12.1952 18.76Z" fill="#6AF8C8"/>
</g>
<defs>
<clipPath id="clip0_1_4503">
<rect width="24" height="24" fill="white" transform="translate(0.375)"/>
</clipPath>
</defs>
</svg>
