<svg width="25" height="24" viewBox="0 0 25 24" fill="none" xmlns="http://www.w3.org/2000/svg">
<g clip-path="url(#clip0_1_4493)">
<path d="M19.4751 14.6499C19.4751 15.8599 18.4951 16.8399 17.2851 16.8399H6.97506C5.76506 16.8399 4.78506 15.8599 4.78506 14.6499V13.4899H2.43506V14.6499C2.43506 17.1599 4.47506 19.1899 6.97506 19.1899H17.2851C19.7851 19.1899 21.8251 17.1599 21.8251 14.6499V13.4899H19.4751V14.6499ZM17.2851 4.81995H6.97506C4.47506 4.81995 2.43506 6.84995 2.43506 9.35995V10.5199H4.78506V9.35995C4.78506 8.14995 5.76506 7.16995 6.97506 7.16995H17.2851C18.4951 7.16995 19.4751 8.14995 19.4751 9.35995V10.5199H21.8251V9.35995C21.8251 6.84995 19.7851 4.81995 17.2851 4.81995Z" fill="#B676FE"/>
<path d="M6.49521 8.51001L9.81521 12M9.81521 12L6.49521 15.49M9.81521 12H1.84521" stroke="#6AF8C8" stroke-width="1.59" stroke-linecap="round" stroke-linejoin="round"/>
<path d="M17.7551 15.49L14.4351 12M14.4351 12L17.7551 8.51001M14.4351 12H22.4051" stroke="#6AF8C8" stroke-width="1.59" stroke-linecap="round" stroke-linejoin="round"/>
</g>
<defs>
<clipPath id="clip0_1_4493">
<rect width="24" height="24" fill="white" transform="translate(0.125)"/>
</clipPath>
</defs>
</svg>
