<svg width="25" height="24" viewBox="0 0 25 24" fill="none" xmlns="http://www.w3.org/2000/svg">
<g clip-path="url(#clip0_1_4490)">
<path d="M15.0251 2.31006H9.72506C7.22506 2.31006 5.18506 4.35006 5.18506 6.85006V10.3201H7.53506V6.85006C7.53506 5.64006 8.52506 4.66006 9.72506 4.66006H15.0251C16.2251 4.66006 17.2051 5.64006 17.2051 6.85006V17.1601C17.2051 18.3601 16.2151 19.3501 15.0151 19.3501H9.72506C8.52506 19.3501 7.53506 18.3601 7.53506 17.1601V13.6901H5.18506V17.1601C5.18506 19.6601 7.22506 21.7001 9.72506 21.7001H15.0251C17.5251 21.7001 19.5651 19.6601 19.5651 17.1601V6.85006C19.5651 4.35006 17.5251 2.31006 15.0251 2.31006Z" fill="#B676FE"/>
<path d="M9.83488 7.62L14.0049 12M14.0049 12L9.83488 16.38M14.0049 12H4.00488" stroke="#6AF8C8" stroke-width="2" stroke-linecap="round" stroke-linejoin="round"/>
</g>
<defs>
<clipPath id="clip0_1_4490">
<rect width="24" height="24" fill="white" transform="translate(0.375)"/>
</clipPath>
</defs>
</svg>
