<svg width="24" height="24" viewBox="0 0 24 24" fill="none" xmlns="http://www.w3.org/2000/svg">
<g clip-path="url(#clip0_1_2087)">
<path d="M12 24C18.6274 24 24 18.6274 24 12C24 5.37257 18.6274 0 12 0C5.37257 0 0 5.37257 0 12C0 18.6274 5.37257 24 12 24Z" fill="#0098EA"/>
<path d="M16.0972 6.69759H7.9022C6.39543 6.69759 5.4404 8.32294 6.19846 9.6369L11.2561 18.4032C11.5862 18.9756 12.4133 18.9756 12.7433 18.4032L17.802 9.6369C18.559 8.32504 17.604 6.69759 16.0982 6.69759H16.0972ZM11.252 15.7743L10.1505 13.6426L7.49278 8.88917C7.31746 8.58493 7.53401 8.19506 7.90117 8.19506H11.251V15.7754L11.252 15.7743ZM16.5046 8.88814L13.8479 13.6436L12.7464 15.7743V8.19403H16.0962C16.4633 8.19403 16.6799 8.5839 16.5046 8.88814Z" fill="white"/>
</g>
<defs>
<clipPath id="clip0_1_2087">
<rect width="24" height="24" fill="white"/>
</clipPath>
</defs>
</svg>
