<svg width="24" height="24" viewBox="0 0 24 24" fill="none" xmlns="http://www.w3.org/2000/svg">
<path d="M12 0C18.63 0 24 5.37 24 12C24 18.63 18.63 24 12 24C5.37 24 0 18.63 0 12C0 5.37 5.37 0 12 0ZM8.59961 4.87012C6.84979 4.87033 5.42969 6.29017 5.42969 8.04004C5.42969 18.62 5.4102 17.89 5.4502 18.04C5.54022 19.7 6.86037 21.0303 8.61035 21.0303C10.3601 21.0301 11.7801 19.6101 11.7803 17.8604V16.4902H13.3604C16.1201 16.4899 17.3901 12.9897 15.2402 11.2197C15.7102 11.2197 16.7993 11.2302 16.9199 11.2002H16.9297C18.5897 11.1102 19.9199 9.79002 19.9199 8.04004C19.9199 6.29004 18.5 4.87012 16.75 4.87012H8.59961ZM6.09961 9.25977C6.09961 9.25977 6.26004 11.1497 8.54004 11.2197C9.10007 11.2397 10.3504 11.2197 13.3604 11.2197V11.2402C14.6302 11.2404 15.6602 12.2702 15.6602 13.54C15.6601 14.8099 14.6302 15.8396 13.3604 15.8398C11.9104 15.8398 9.08021 15.8198 8.54004 15.8398C6.27226 15.8995 6.10137 17.7797 6.09961 17.7998V9.25977Z" fill="url(#paint0_linear_1_2095)"/>
<defs>
<linearGradient id="paint0_linear_1_2095" x1="0.67" y1="23.86" x2="22.62" y2="0.88" gradientUnits="userSpaceOnUse">
<stop stop-color="#9E48FF"/>
<stop offset="1" stop-color="#B676FE"/>
</linearGradient>
</defs>
</svg>
