<svg width="24" height="24" viewBox="0 0 24 24" fill="none" xmlns="http://www.w3.org/2000/svg">
<path fill-rule="evenodd" clip-rule="evenodd" d="M9.00948 4.02252C9.04248 4.00765 9.0783 4 9.11449 4H14.8856C14.9218 4 14.9576 4.00765 14.9907 4.02252L18.8778 5.77293C18.9233 5.79331 18.9617 5.8265 18.9886 5.8684L21.2043 9.31827C21.265 9.41281 21.2577 9.53588 21.1862 9.62245L12.1978 20.5138C12.0951 20.6382 11.905 20.6382 11.8024 20.5138L2.81394 9.62245C2.74249 9.53588 2.73515 9.41281 2.79587 9.31827L5.01148 5.8684C5.03845 5.8265 5.07691 5.79331 5.1222 5.77293L9.00948 4.02252Z" fill="url(#paint0_linear_1_5406)"/>
<path fill-rule="evenodd" clip-rule="evenodd" d="M9.00948 4.02252C9.04248 4.00765 9.0783 4 9.11449 4H14.8856C14.9218 4 14.9576 4.00765 14.9907 4.02252L18.8778 5.77293C18.9233 5.79331 18.9617 5.8265 18.9886 5.8684L21.2043 9.31827C21.265 9.41281 21.2577 9.53588 21.1862 9.62245H2.81394C2.74249 9.53588 2.73515 9.41281 2.79587 9.31827L5.01148 5.8684C5.03845 5.8265 5.07691 5.79331 5.1222 5.77293L9.00948 4.02252Z" fill="url(#paint1_linear_1_5406)"/>
<path d="M11.9999 7.4278L15.5066 12.0616H8.49316L11.9999 7.4278Z" fill="#95B0FF"/>
<path d="M11.7905 20.4862C11.8979 20.6161 12.0982 20.6134 12.2021 20.4808L13.1883 19.2233L15.5066 12.0617H8.49316L10.745 19.2233L11.7905 20.4862Z" fill="url(#paint2_linear_1_5406)"/>
<path d="M12.0007 7.42775L5.78418 6.50739L8.49397 12.0616L12.0007 7.42775Z" fill="#D7D6FC"/>
<path d="M2.81348 9.62247L5.78297 6.50739L8.49276 12.0616L2.81348 9.62247Z" fill="#BDB3F9"/>
<path d="M12 7.42775L18.2165 6.50739L15.5067 12.0616L12 7.42775Z" fill="#6E97FF"/>
<path d="M21.1861 9.62247L18.2166 6.50739L15.5068 12.0616L21.1861 9.62247Z" fill="#A4CCFA"/>
<path d="M21.1862 9.62278L18.2168 6.50769L18.8863 5.77771C18.8989 5.78417 18.9356 5.80004 18.9726 5.84583C19.0203 5.90461 20.4113 7.96816 21.2043 9.31867C21.2771 9.4425 21.24 9.55792 21.1862 9.62278Z" fill="#799FF0"/>
<path d="M2.81452 9.62278L5.78388 6.50769L5.11443 5.77771C5.10182 5.78417 5.06519 5.80004 5.02805 5.84583C4.98038 5.90461 3.58941 7.96816 2.79639 9.31867C2.72368 9.4425 2.76069 9.55792 2.81452 9.62278Z" fill="#B28DFF"/>
<path d="M6.81223 13.0128C6.78732 13.0244 6.76336 12.9951 6.77986 12.9731L7.57608 11.9112C7.80981 11.5994 7.85241 11.1844 7.68668 10.8319L7.12242 9.63096C7.11076 9.60612 7.14018 9.58222 7.16219 9.59871L8.22634 10.3932C8.53879 10.6265 8.95463 10.669 9.30792 10.5037L10.5113 9.94059C10.5362 9.92892 10.5601 9.95828 10.5436 9.98024L9.7474 11.0422C9.51361 11.354 9.47108 11.769 9.63675 12.1216L10.201 13.3224C10.2127 13.3472 10.1833 13.3711 10.1612 13.3547L9.09709 12.5601C8.78469 12.3268 8.3688 12.2844 8.0155 12.4497L6.81223 13.0128Z" fill="white"/>
<defs>
<linearGradient id="paint0_linear_1_5406" x1="2.75485" y1="9.73342" x2="21.7074" y2="9.53488" gradientUnits="userSpaceOnUse">
<stop stop-color="#9889FE"/>
<stop offset="0.495027" stop-color="#68A3F1"/>
<stop offset="1" stop-color="#61A8EA"/>
</linearGradient>
<linearGradient id="paint1_linear_1_5406" x1="5.00012" y1="5.77932" x2="18.6698" y2="5.71314" gradientUnits="userSpaceOnUse">
<stop stop-color="#B69EFD"/>
<stop offset="1" stop-color="#9BB7FC"/>
</linearGradient>
<linearGradient id="paint2_linear_1_5406" x1="11.9999" y1="12.0617" x2="11.9999" y2="20.5819" gradientUnits="userSpaceOnUse">
<stop stop-color="#B3C9FA"/>
<stop offset="1" stop-color="#A3D2F6"/>
</linearGradient>
</defs>
</svg>
