<svg width="24" height="24" viewBox="0 0 24 24" fill="none" xmlns="http://www.w3.org/2000/svg">
<path d="M12 21.75C17.3848 21.75 21.75 17.3848 21.75 12C21.75 6.61523 17.3848 2.25 12 2.25C6.61523 2.25 2.25 6.61523 2.25 12C2.25 17.3848 6.61523 21.75 12 21.75Z" stroke="#07ACFF" stroke-width="2" stroke-linecap="round" stroke-linejoin="round"/>
<path d="M11.8751 8.25V17.7501L7.23851 9.81338C7.15847 9.6534 7.11972 9.4764 7.12558 9.29805C7.13144 9.11977 7.18175 8.94563 7.27212 8.79105C7.36249 8.63648 7.49013 8.50628 7.6437 8.41193C7.7973 8.3175 7.97198 8.26192 8.15258 8.25H11.8751Z" stroke="#07ACFF" stroke-width="1.75386" stroke-linecap="round" stroke-linejoin="round"/>
<path d="M11.876 17.7501L16.5124 9.81338C16.5924 9.6534 16.6313 9.4764 16.6254 9.29805C16.6196 9.11977 16.5691 8.94563 16.4788 8.79105C16.3884 8.63648 16.2609 8.50628 16.1073 8.41193C15.9537 8.3175 15.7789 8.26192 15.5984 8.25H11.876V17.7501Z" stroke="#07ACFF" stroke-width="1.75386" stroke-linecap="round" stroke-linejoin="round"/>
</svg>
