<svg width="24" height="24" viewBox="0 0 24 24" fill="none" xmlns="http://www.w3.org/2000/svg">
<g clip-path="url(#clip0_1_5427)">
<path d="M14.6496 2.31H9.34957C6.84957 2.31 4.80957 4.35 4.80957 6.85V17.16C4.80957 19.66 6.84957 21.7 9.34957 21.7H14.6496C17.1496 21.7 19.1896 19.66 19.1896 17.16V6.85C19.1896 4.35 17.1496 2.31 14.6496 2.31ZM18.9496 12.64C18.7596 13.16 18.3996 13.55 17.9196 13.76C17.8596 13.79 17.7996 13.8 17.7496 13.82C17.9196 13.96 18.0696 14.1 18.2096 14.27C18.5596 14.7 18.7596 15.18 18.7996 15.69C18.8396 16.12 18.7796 16.5 18.6396 16.86C18.5096 17.19 18.2996 17.5 18.0296 17.78C17.7196 18.11 17.3296 18.38 16.8996 18.58C16.5996 18.71 16.2896 18.82 15.9896 18.89H15.9796C15.6096 19.18 15.1496 19.35 14.6496 19.35H9.34957C8.84957 19.35 8.37957 19.17 8.00957 18.88C7.92957 18.87 7.84957 18.85 7.76957 18.83C7.52957 18.76 7.27957 18.66 6.99957 18.52C6.80957 18.43 6.55957 18.3 6.32957 18.11C6.06957 17.89 5.72957 17.59 5.49957 17.14C5.36957 16.91 5.27957 16.66 5.21957 16.38C5.14957 16.08 5.14957 15.76 5.21957 15.45C5.30957 15.03 5.46957 14.68 5.69957 14.38C5.85957 14.17 6.04957 13.99 6.25957 13.82C5.90957 13.71 5.59957 13.51 5.36957 13.22C4.97957 12.73 4.83957 12.14 4.98957 11.55C5.11957 11.06 5.40957 10.65 5.82957 10.38C5.83957 10.35 5.83957 10.33 5.83957 10.31L5.85957 10.18C5.91957 9.77 6.03957 9.35 6.20957 8.91C6.34957 8.56 6.51957 8.23 6.73957 7.88C6.86957 7.68 7.00957 7.48 7.16957 7.29V6.85C7.16957 5.64 8.14957 4.66 9.34957 4.66H14.6496C15.8496 4.66 16.8296 5.64 16.8296 6.85V7.3C16.9696 7.47 17.1096 7.66 17.2296 7.85C17.4196 8.15 17.5996 8.47 17.7596 8.85C17.8996 9.18 18.0096 9.53 18.0896 9.93C18.1196 10.08 18.1496 10.23 18.1696 10.38C18.4696 10.57 18.7196 10.85 18.8796 11.2C19.0996 11.68 19.1296 12.17 18.9496 12.64Z" fill="#B676FE"/>
<path d="M12.0003 12.93C10.3003 12.93 8.61028 12.93 6.91028 12.93C6.61028 12.93 6.35028 12.83 6.16028 12.6C5.97028 12.37 5.89028 12.1 5.97028 11.8C6.04028 11.54 6.19028 11.34 6.41028 11.21C6.50028 11.16 6.60028 11.13 6.70028 11.11C6.76028 11.11 6.80028 11.08 6.79028 11C6.77028 10.77 6.83028 10.55 6.86028 10.33C6.91028 9.96997 7.01028 9.61997 7.15028 9.27997C7.27028 8.97997 7.42028 8.68998 7.59028 8.41998C7.87028 7.96997 8.22028 7.57997 8.61028 7.23997C8.83028 7.04997 9.06028 6.88997 9.31028 6.72997C9.56028 6.56997 9.83028 6.43997 10.1003 6.32997C10.4103 6.20997 10.7303 6.11997 11.0503 6.05997C11.5403 5.96997 12.0303 5.96998 12.5203 6.00998C12.7303 6.02998 12.9503 6.06997 13.1603 6.11997C13.4003 6.17997 13.6303 6.24997 13.8703 6.32997C14.0403 6.38997 14.2003 6.46997 14.3603 6.55997C14.5703 6.66997 14.7703 6.78997 14.9603 6.92997C15.2303 7.10997 15.4703 7.31998 15.7003 7.54998C15.9603 7.80998 16.1903 8.09997 16.3903 8.40997C16.5703 8.67997 16.7103 8.96998 16.8403 9.25998C16.9603 9.53998 17.0503 9.83998 17.1103 10.14C17.1703 10.43 17.2103 10.72 17.2103 11.01C17.2103 11.08 17.2303 11.1 17.3003 11.11C17.6203 11.16 17.8503 11.34 17.9803 11.63C18.0803 11.84 18.1103 12.06 18.0203 12.3C17.9203 12.56 17.7703 12.75 17.5203 12.85C17.3903 12.91 17.2503 12.94 17.1103 12.93C15.4103 12.93 13.7003 12.93 12.0003 12.93Z" fill="#6AF8C8"/>
<path d="M9.28998 13.82C9.56998 13.81 9.83998 13.84 10.11 13.89C10.51 13.96 10.89 14.1 11.26 14.28C11.56 14.43 11.88 14.47 12.21 14.44C12.47 14.41 12.7 14.29 12.93 14.19C13.23 14.05 13.54 13.97 13.86 13.9C14.22 13.82 14.59 13.83 14.95 13.83C15.14 13.83 15.32 13.87 15.5 13.9C15.77 13.93 16.02 14.01 16.27 14.11C16.48 14.19 16.68 14.29 16.87 14.41C17.08 14.55 17.28 14.72 17.44 14.91C17.65 15.16 17.78 15.45 17.81 15.78C17.83 16.03 17.81 16.26 17.72 16.49C17.63 16.72 17.49 16.92 17.32 17.1C17.08 17.35 16.8 17.54 16.49 17.68C16.18 17.82 15.86 17.92 15.53 17.98C15.11 18.04 14.69 18.06 14.26 18.03C13.92 18 13.6 17.93 13.28 17.83C13.1 17.77 12.92 17.68 12.75 17.6C12.38 17.42 12 17.36 11.59 17.48C11.37 17.54 11.18 17.67 10.96 17.75C10.69 17.86 10.41 17.95 10.12 17.99C9.69998 18.06 9.27998 18.08 8.84998 18.04C8.57998 18.01 8.30998 17.96 8.04998 17.89C7.84998 17.83 7.64998 17.75 7.45998 17.66C7.28998 17.57 7.11998 17.48 6.96998 17.36C6.73998 17.18 6.52998 16.97 6.38998 16.71C6.29998 16.55 6.24998 16.38 6.20998 16.2C6.16998 16.03 6.17998 15.86 6.20998 15.69C6.25998 15.45 6.34998 15.22 6.49998 15.02C6.66998 14.8 6.86998 14.61 7.10998 14.45C7.28998 14.33 7.47998 14.22 7.67998 14.14C7.92998 14.04 8.18998 13.97 8.44998 13.92C8.72998 13.87 9.00998 13.83 9.28998 13.85V13.82ZM14.71 15.33C14.58 15.33 14.45 15.35 14.32 15.37C14.05 15.41 13.8 15.51 13.62 15.73C13.56 15.8 13.51 15.89 13.56 15.99C13.62 16.14 13.73 16.24 13.87 16.32C14.13 16.46 14.42 16.51 14.71 16.52C14.86 16.52 15 16.49 15.14 16.46C15.37 16.42 15.58 16.33 15.74 16.16C15.79 16.11 15.84 16.04 15.85 15.96C15.86 15.77 15.74 15.67 15.6 15.58C15.33 15.4 15.02 15.36 14.71 15.35V15.33ZM9.26998 15.33C9.08998 15.34 8.88998 15.36 8.68998 15.43C8.48998 15.5 8.29998 15.59 8.18998 15.78C8.13998 15.86 8.11998 15.94 8.16998 16.03C8.25998 16.2 8.40998 16.31 8.57998 16.38C8.88998 16.5 9.20998 16.55 9.53998 16.5C9.78998 16.46 10.03 16.41 10.23 16.25C10.33 16.17 10.42 16.09 10.44 15.95C10.46 15.76 10.33 15.66 10.2 15.57C9.92998 15.39 9.61998 15.34 9.26998 15.33Z" fill="#6AF8C8"/>
</g>
<defs>
<clipPath id="clip0_1_5427">
<rect width="24" height="24" fill="white"/>
</clipPath>
</defs>
</svg>
